<svg xmlns="http://www.w3.org/2000/svg" width="36" height="15.068" viewBox="0 0 36 15.068"><path fill="#FFF" d="M14.785 15.014l5.556.017 8.361-7.695L20.377 0h-5.556l8.972 7.372-9.008 7.642z"/><path fill="none" d="M14.785 15.014l5.556.017 8.361-7.695L20.377 0h-5.556l8.972 7.372-9.008 7.642z"/><path fill="#FFF" d="M22.084 15.014l5.575.017 8.342-7.695L27.695 0H22.14l8.971 7.372-9.027 7.642z"/><path fill="none" d="M22.084 15.014l5.575.017 8.342-7.695L27.695 0H22.14l8.971 7.372-9.027 7.642z"/><path fill="#FFF" d="M.113 15.014l5.555.017 8.362-7.695L5.704 0H.148l8.973 7.372-9.008 7.642z"/><path fill="none" d="M.113 15.014l5.555.017 8.362-7.695L5.704 0H.148l8.973 7.372-9.008 7.642z"/><path fill="#FFF" d="M7.413 15.014l5.574.017 8.344-7.695L13.023 0H7.467l8.972 7.372-9.026 7.642z"/><path fill="none" d="M7.413 15.014l5.574.017 8.344-7.695L13.023 0H7.467l8.972 7.372-9.026 7.642z"/><path fill="none" d="M.113 15.068h35.924V.018H.113v15.05z"/></svg>