<?xml version="1.0" encoding="utf-8"?>
<!-- Generator: Adobe Illustrator 21.1.0, SVG Export Plug-In . SVG Version: 6.00 Build 0)  -->
<svg version="1.1" id="Layer_1" xmlns="http://www.w3.org/2000/svg" xmlns:xlink="http://www.w3.org/1999/xlink" x="0px" y="0px"
	 viewBox="0 0 246.126 103.23" enable-background="new 0 0 246.126 103.23" xml:space="preserve">
<polygon fill="#F78F28" points="100.521,102.858 138.586,102.981 195.866,50.258 138.832,0 100.767,0 162.237,50.506 
	100.521,102.858 "/>
<polygon fill="none" points="100.521,102.858 138.586,102.981 195.866,50.258 138.832,0 100.767,0 162.237,50.506 100.521,102.858 
	"/>
<polygon fill="#F78F28" points="150.534,102.858 188.723,102.981 245.88,50.258 188.969,0 150.904,0 212.374,50.506 
	150.534,102.858 "/>
<polygon fill="none" points="150.534,102.858 188.723,102.981 245.88,50.258 188.969,0 150.904,0 212.374,50.506 150.534,102.858 
	"/>
<polygon fill="#F78F28" points="0.001,102.858 38.066,102.981 95.347,50.258 38.311,0 0.247,0 61.717,50.506 0.001,102.858 "/>
<polygon fill="none" points="0.001,102.858 38.066,102.981 95.347,50.258 38.311,0 0.247,0 61.717,50.506 0.001,102.858 "/>
<polygon fill="#F78F28" points="50.015,102.858 88.201,102.981 145.361,50.258 88.449,0 50.384,0 111.855,50.506 50.015,102.858 "/>
<polygon fill="none" points="50.015,102.858 88.201,102.981 145.361,50.258 88.449,0 50.384,0 111.855,50.506 50.015,102.858 "/>
<polygon fill="none" points="0,103.23 246.126,103.23 246.126,0.121 0,0.121 0,103.23 "/>
</svg>
