<svg version="1.1" id="Layer_1" xmlns="http://www.w3.org/2000/svg" xmlns:xlink="http://www.w3.org/1999/xlink" x="0px" y="0px" viewBox="0 0 81 80.6" style="enable-background:new 0 0 81 80.6;" xml:space="preserve"><style type="text/css">.st0{fill:#1D2132;}.st1{fill:url(#SVGID_1_);}.st2{opacity:0.25;}.st3{opacity:0.2;fill:#688EC4;stroke:#FFFFFF;stroke-miterlimit:10;}.st4{opacity:0.1;fill:#688EC4;stroke:#FFFFFF;stroke-miterlimit:10;}.st5{opacity:5.000000e-02;fill:#688EC4;stroke:#FFFFFF;stroke-miterlimit:10;}.st6{opacity:5.000000e-02;fill:none;stroke:#FFFFFF;stroke-width:2;stroke-miterlimit:10;}.st7{opacity:5.000000e-02;fill:#688EC4;stroke:#FFFFFF;stroke-width:2;stroke-miterlimit:10;}.st8{opacity:0.15;fill:#688EC4;stroke:#FFFFFF;stroke-miterlimit:10;}.st9{opacity:0.25;fill:#688EC4;stroke:#FFFFFF;stroke-miterlimit:10;}.st10{opacity:0.1;fill:none;stroke:#FFFFFF;stroke-width:2;stroke-miterlimit:10;}.st11{opacity:0.1;fill:#688EC4;stroke:#FFFFFF;stroke-width:2;stroke-miterlimit:10;}.st12{fill:#FFFFFF;}.st13{fill:none;stroke:#606060;stroke-miterlimit:10;}.st14{opacity:0.5;fill:#CECECE;}.st15{fill:#F68E28;}.st16{fill:none;}.st17{enable-background:new;}.st18{fill:#606060;}.st19{fill:url(#SVGID_6_);}.st20{opacity:5.000000e-02;}.st21{opacity:3.000000e-02;fill:#688EC4;stroke:#FFFFFF;stroke-width:2;stroke-miterlimit:10;}.st22{opacity:3.000000e-02;fill:none;stroke:#FFFFFF;stroke-width:2;stroke-miterlimit:10;}.st23{fill:#4D4D4D;}.st24{fill:#F2653E;}.st25{fill:none;stroke:#FFFFFF;stroke-miterlimit:10;}.st26{fill:none;stroke:#FFFFFF;stroke-miterlimit:10;stroke-dasharray:3,3;}.st27{fill:#EF3A39;}.st28{fill:#4A78BB;}.st29{fill:url(#SVGID_7_);}.st30{fill:url(#SVGID_8_);}.st31{fill:url(#SVGID_9_);}.st32{fill:url(#SVGID_10_);}</style><g><path class="st16" d="M70.9,61.2c-3,0.1-5.7-1-7.9-3.2c-4.2-4.2-8.3-8.5-12.6-12.7c-3.1-3-4.3-6.6-4-10.8c0.1-1.7-0.5-3-1.7-4.1c-2.4-2.1-5.2-1.8-8.1-1.7c0.2,0.3,0.5,0.4,0.7,0.6c1.2,0.9,2.4,1.8,3.6,2.8c0.8,0.7,1.3,1.7,1.1,2.8c-0.5,2.6-1.5,5-3.7,6.7c-1.8,1.4-3.3,1.5-5.2,0.2c-1-0.7-2-1.3-2.9-2c-0.1,0.1-0.2,0.1-0.2,0.2c0.8,1.2,1.5,2.3,2.3,3.5c1.4,1.9,3,3,5.6,2.9c3.4-0.2,6.4,1.1,8.8,3.6c2.7,2.8,5.5,5.4,8.2,8.1c1.4,1.4,2.8,2.9,4.3,4.3c2.7,2.6,3.5,5.8,3.4,9.4c0,0.9,0.1,1.8,0.4,2.6c1.2,2.4,5.7,4,8.3,3.1c-1.1-0.8-2.2-1.6-3.2-2.5c-0.9-0.8-1.6-1.8-1.4-3.1c0.4-2.3,1.2-4.5,3-6c2.1-1.8,3.4-2,5.6-0.3c0.6,0.4,1.2,0.8,1.8,1.2c0.1-0.1,0.1-0.1,0.2-0.2c-0.9-1.2-1.7-2.4-2.7-3.6C73.6,61.8,72.4,61.2,70.9,61.2z"/><path class="st23" d="M56.7,66c-0.9-1.7-4.9-5.1-6.5-6.9C50.1,59,49.9,59,49.6,59c-0.1,0-0.2-0.1-0.4-0.1c-0.4,0-0.8,0.2-1.2,0.3c-4,1.6-8.1,2.1-12.2,1.3C23.3,58.2,15.6,46,18.9,33.6C22,22.2,33.3,15.6,45,18.3C55.6,20.9,62.7,31,61.2,41.8c-0.3,1.9-0.9,3.7-1.4,5.6c-0.2,0.7,0,1.3,0.5,1.7c1.5,2,3.5,4.6,5.8,6.2c0,0.1,0.1,0.1,0.1,0.1c0.1,0,0.2,0.1,0.2,0.1c0,0,0,0,0,0c0,0,0,0,0,0c0,0,0,0,0,0c0.1,0.1,0.2,0.1,0.3,0.1c0.6,0.2,1.1,0.1,1.5-0.6c0.7-1.4,1.4-2.9,2-4.4c0.2-0.6,0.5-0.8,1.1-0.8c1.7,0,3.5,0,5.2,0c1.3,0,1.7-0.3,2-1.6c1.3-5.7,1.4-11.5,0-17.2c-0.3-1.3-0.7-1.7-2-1.7c-1.7,0-3.5,0-5.2,0c-0.6,0-0.9-0.1-1.1-0.7c-0.3-1-0.7-1.9-1.1-2.8c-0.3-0.5-0.2-0.9,0.2-1.2c1.2-1.2,2.4-2.3,3.5-3.5c1.2-1.2,1.2-1.6,0.3-3C70,13.4,66,9.5,61.2,6.3c-1.1-0.7-1.7-0.7-2.6,0.2c-1.3,1.3-2.6,2.5-3.8,3.8c-0.4,0.4-0.7,0.5-1.2,0.2c-0.9-0.4-1.9-0.8-2.8-1.2C50.2,9.2,50,8.9,50,8.3c0-1.8,0-3.7,0-5.5c0-1.1-0.4-1.6-1.5-1.8C42.8-0.3,37-0.3,31.1,1c-1.3,0.3-1.6,0.7-1.6,2c0,1.7,0,3.5,0,5.2c0,0.6-0.2,0.9-0.8,1.1c-1,0.3-1.9,0.7-2.8,1.1c-0.5,0.2-0.8,0.1-1.2-0.2c-1.2-1.2-2.4-2.5-3.6-3.7c-0.9-0.9-1.5-1.1-2.6-0.4c-4.9,3.2-9,7.3-12.2,12.2c-0.7,1.1-0.6,1.6,0.2,2.5c1.3,1.3,2.5,2.5,3.8,3.8c0.4,0.4,0.5,0.7,0.2,1.2c-0.4,0.9-0.8,1.9-1.1,2.8c-0.2,0.6-0.5,0.8-1.1,0.8c-1.8,0-3.7,0-5.5,0c-1.1,0-1.6,0.4-1.8,1.5c-1.3,5.8-1.5,11.6,0,17.4c0.3,1.3,0.7,1.6,2.1,1.6c1.7,0,3.4,0,5.1,0c0.6,0,0.9,0.2,1.1,0.8c0.3,0.9,0.7,1.9,1.1,2.7c0.3,0.6,0.2,0.9-0.3,1.3c-1.2,1.2-2.5,2.4-3.7,3.7c-0.9,0.9-1,1.5-0.3,2.5c3.2,4.9,7.3,9,12.2,12.2c1.1,0.7,1.6,0.6,2.5-0.3c1.3-1.2,2.5-2.5,3.7-3.7c0.4-0.4,0.8-0.5,1.3-0.2c0.9,0.4,1.8,0.8,2.7,1.1c0.7,0.2,0.9,0.6,0.9,1.3c0,1.8,0,3.5,0,5.3c0,1,0.5,1.5,1.4,1.7c5.8,1.3,11.5,1.5,17.3,0.1c1.6-0.4,1.8-0.7,1.8-2.4c0-1.6,0-3.3,0-4.9c0-0.6,0.2-0.8,0.7-1c1.5-0.6,2.9-1.2,4.4-2c0.7-0.3,1.6-0.8,1.7-1.5C56.8,66.4,56.8,66.2,56.7,66z"/><path class="st23" d="M80.8,67.2c-0.1-0.5-0.3-0.9-0.6-1.3c-0.9-1.4-1.7-2.8-2.7-4.1c-1.8-2.3-4-3.8-7.1-3.5c-1.9,0.1-3.5-0.6-4.9-1.9c-4.4-4.4-8.7-8.8-13.1-13.2c-2.2-2.2-3.3-4.7-3.1-7.7c0.2-1.8,0-3.5-1.1-4.9c-1-1.2-2.1-2.3-3.3-3.3c-1.9-1.5-4.2-1.5-6.4-1.5c-1.6,0-3.1,0.2-4.6,0.6c-1.8,0.5-2.2,2.5-0.9,3.9c0.5,0.5,1.1,0.8,1.6,1.2c1.2,0.8,2.4,1.4,3.5,2.2c0.4,0.3,0.9,0.9,0.8,1.3c-0.4,1.6-0.9,3.3-2.3,4.4c-0.7,0.6-1.3,0.6-2,0.1c-1.3-0.9-2.6-1.8-4-2.6c-2-1.1-3.5-0.2-3.7,2c0,0.4-0.1,0.9,0.1,1.2c0.8,1.5,1.5,3.1,2.4,4.5c2.1,3.2,4.9,5.3,9.1,4.9c2.1-0.2,4,0.6,5.6,2.1c4.2,4.2,8.4,8.4,12.7,12.5c2.2,2.1,3.2,4.7,2.9,7.7c-0.2,2,0.4,3.6,1.6,5.1c1.6,2,3.6,3.3,6.2,3.6c2.2,0.3,4.3,0.4,6.5-0.3c1.7-0.5,2.3-2.1,1.2-3.6c-0.4-0.5-0.9-1-1.5-1.3c-1.1-0.7-2.3-1.3-3.3-2.1c-0.3-0.2-0.7-0.8-0.7-1.1c0.5-1.6,0.8-3.2,2.3-4.2c0.5-0.4,0.9-0.4,1.4,0c1.2,0.8,2.4,1.7,3.6,2.4c1,0.6,2,0.8,3.1,0C81,69.5,81.2,68.5,80.8,67.2zM77,66.7c-0.6-0.4-1.2-0.7-1.8-1.2c-2.2-1.6-3.4-1.5-5.6,0.3c-1.8,1.5-2.6,3.7-3,6c-0.2,1.3,0.5,2.3,1.4,3.1c1,0.9,2.2,1.7,3.2,2.5c-2.6,0.9-7.1-0.6-8.3-3.1c-0.4-0.8-0.5-1.7-0.4-2.6c0.2-3.6-0.6-6.8-3.4-9.4c-1.5-1.4-2.9-2.9-4.3-4.3c-2.7-2.7-5.5-5.3-8.2-8.1c-2.4-2.5-5.4-3.7-8.8-3.6c-2.5,0.1-4.2-0.9-5.6-2.9c-0.8-1.1-1.6-2.3-2.3-3.5c0.1-0.1,0.2-0.1,0.2-0.2c1,0.7,2,1.3,2.9,2c1.9,1.2,3.4,1.2,5.2-0.2c2.1-1.7,3.2-4.1,3.7-6.7c0.2-1.1-0.3-2.1-1.1-2.8c-1.1-1-2.4-1.9-3.6-2.8c-0.2-0.2-0.5-0.3-0.7-0.6c2.8-0.1,5.7-0.5,8.1,1.7c1.2,1.1,1.9,2.4,1.7,4.1c-0.3,4.2,0.8,7.8,4,10.8c4.3,4.1,8.4,8.4,12.6,12.7c2.2,2.2,4.8,3.3,7.9,3.2c1.6,0,2.8,0.5,3.7,1.7c0.9,1.1,1.8,2.4,2.7,3.6C77.2,66.5,77.1,66.6,77,66.7z"/></g></svg>
