<?xml version="1.0" encoding="utf-8"?>
<!-- Generator: Adobe Illustrator 15.1.0, SVG Export Plug-In . SVG Version: 6.00 Build 0)  -->
<!DOCTYPE svg PUBLIC "-//W3C//DTD SVG 1.1//EN" "http://www.w3.org/Graphics/SVG/1.1/DTD/svg11.dtd">
<svg version="1.1" id="Layer_1" xmlns="http://www.w3.org/2000/svg" xmlns:xlink="http://www.w3.org/1999/xlink" x="0px" y="0px"
	 width="45px" height="45px" viewBox="0 0 45 45" enable-background="new 0 0 45 45" xml:space="preserve">
<path fill="#F2653E" d="M38.418,6.584C29.641-2.193,15.36-2.193,6.583,6.582c-8.778,8.778-8.778,23.059,0,31.837
	c8.776,8.775,23.057,8.775,31.833-0.002C47.193,29.641,47.193,15.36,38.418,6.584L38.418,6.584z M35.961,35.962
	c-7.421,7.423-19.499,7.425-26.922,0.002c-7.425-7.423-7.423-19.504,0-26.927c7.423-7.421,19.499-7.423,26.924,0.002
	C43.385,16.46,43.385,28.541,35.961,35.962L35.961,35.962z M14.104,16.408c0-1.451,1.176-2.631,2.63-2.631
	c1.453,0,2.629,1.18,2.629,2.631c0,1.455-1.176,2.632-2.629,2.632C15.28,19.04,14.104,17.863,14.104,16.408L14.104,16.408z
	 M26.033,16.408c0-1.451,1.18-2.631,2.631-2.631c1.453,0,2.632,1.18,2.632,2.631c0,1.455-1.177,2.632-2.632,2.632
	C27.213,19.04,26.033,17.863,26.033,16.408L26.033,16.408z M32.253,27.184c-1.631,3.771-5.448,6.207-9.728,6.207
	c-4.371,0-8.211-2.446-9.787-6.238c-0.269-0.648,0.038-1.394,0.688-1.663c0.159-0.066,0.325-0.098,0.487-0.098
	c0.5,0,0.974,0.297,1.177,0.785c1.18,2.837,4.096,4.67,7.435,4.67c3.264,0,6.165-1.835,7.393-4.672
	c0.277-0.646,1.027-0.944,1.672-0.665C32.236,25.79,32.532,26.54,32.253,27.184L32.253,27.184z M32.253,27.184"/>
</svg>
