<?xml version="1.0" encoding="utf-8"?>
<!-- Generator: Adobe Illustrator 21.1.0, SVG Export Plug-In . SVG Version: 6.00 Build 0)  -->
<svg version="1.1" id="Layer_1" xmlns="http://www.w3.org/2000/svg" xmlns:xlink="http://www.w3.org/1999/xlink" x="0px" y="0px"
	 viewBox="0 0 80.8 13.5" style="enable-background:new 0 0 80.8 13.5;" xml:space="preserve">
<style type="text/css">
	.st0{fill:#1D2132;}
	.st1{fill:url(#SVGID_1_);}
	.st2{opacity:0.25;}
	.st3{opacity:0.2;fill:#688EC4;stroke:#FFFFFF;stroke-miterlimit:10;}
	.st4{opacity:0.1;fill:#688EC4;stroke:#FFFFFF;stroke-miterlimit:10;}
	.st5{opacity:5.000000e-02;fill:#688EC4;stroke:#FFFFFF;stroke-miterlimit:10;}
	.st6{opacity:5.000000e-02;fill:none;stroke:#FFFFFF;stroke-width:2;stroke-miterlimit:10;}
	.st7{opacity:5.000000e-02;fill:#688EC4;stroke:#FFFFFF;stroke-width:2;stroke-miterlimit:10;}
	.st8{opacity:0.15;fill:#688EC4;stroke:#FFFFFF;stroke-miterlimit:10;}
	.st9{opacity:0.25;fill:#688EC4;stroke:#FFFFFF;stroke-miterlimit:10;}
	.st10{opacity:0.1;fill:none;stroke:#FFFFFF;stroke-width:2;stroke-miterlimit:10;}
	.st11{opacity:0.1;fill:#688EC4;stroke:#FFFFFF;stroke-width:2;stroke-miterlimit:10;}
	.st12{fill:#FFFFFF;}
	.st13{fill:none;stroke:#606060;stroke-miterlimit:10;}
	.st14{opacity:0.5;fill:#CECECE;}
	.st15{fill:#F68E28;}
	.st16{fill:none;}
	.st17{enable-background:new    ;}
	.st18{fill:#606060;}
	.st19{fill:url(#SVGID_6_);}
	.st20{opacity:5.000000e-02;}
	.st21{opacity:3.000000e-02;fill:#688EC4;stroke:#FFFFFF;stroke-width:2;stroke-miterlimit:10;}
	.st22{opacity:3.000000e-02;fill:none;stroke:#FFFFFF;stroke-width:2;stroke-miterlimit:10;}
	.st23{fill:#4D4D4D;}
	.st24{fill:#F2653E;}
	.st25{fill:none;stroke:#FFFFFF;stroke-miterlimit:10;}
	.st26{fill:none;stroke:#FFFFFF;stroke-miterlimit:10;stroke-dasharray:3,3;}
	.st27{fill:#EF3A39;}
	.st28{fill:#4A78BB;}
	.st29{fill:url(#SVGID_7_);}
	.st30{fill:url(#SVGID_8_);}
	.st31{fill:url(#SVGID_9_);}
	.st32{fill:url(#SVGID_10_);}
	.st33{fill:#E12829;}
	.st34{fill:#4E80C0;}
	.st35{fill:#F68F33;}
	.st36{fill:#5CA545;}
	.st37{fill:#4D4D4F;}
</style>
<g>
	<g>
		<path class="st33" d="M44,12c0,0.8-0.7,1.5-1.5,1.5H32c-0.8,0-1.5-0.7-1.5-1.5V1.5C30.5,0.7,31.1,0,32,0h10.5
			C43.3,0,44,0.7,44,1.5V12z"/>
		<path class="st34" d="M59.2,12c0,0.8-0.7,1.5-1.5,1.5H47.2c-0.8,0-1.5-0.7-1.5-1.5V1.5c0-0.8,0.7-1.5,1.5-1.5h10.5
			c0.8,0,1.5,0.7,1.5,1.5V12z"/>
		<path class="st35" d="M28.7,12c0,0.8-0.7,1.5-1.5,1.5H16.7c-0.8,0-1.5-0.7-1.5-1.5V1.5c0-0.8,0.7-1.5,1.5-1.5h10.5
			c0.8,0,1.5,0.7,1.5,1.5V12z"/>
		<path class="st36" d="M13.5,12c0,0.8-0.7,1.5-1.5,1.5H1.5C0.7,13.5,0,12.8,0,12V1.5C0,0.7,0.7,0,1.5,0H12c0.8,0,1.5,0.7,1.5,1.5
			V12z"/>
		<polygon class="st12" points="2.7,2.5 5.1,2.5 8.3,7.2 8.3,2.5 10.8,2.5 10.8,11 8.3,11 5.2,6.3 5.2,11 2.7,11 		"/>
		<polygon class="st12" points="18.6,2.5 25.6,2.5 25.6,4.3 21.2,4.3 21.2,5.7 25.3,5.7 25.3,7.4 21.2,7.4 21.2,9.1 25.7,9.1 
			25.7,11 18.6,11 		"/>
		<polygon class="st12" points="48.4,2.5 50.9,2.5 54.1,7.2 54.1,2.5 56.5,2.5 56.5,11 54.1,11 50.9,6.3 50.9,11 48.4,11 		"/>
		<path class="st12" d="M35.4,6.8c0,0.9,0.2,1.5,0.5,1.9c0.3,0.4,0.8,0.6,1.3,0.6c0.6,0,1-0.2,1.3-0.6c0.3-0.4,0.5-1,0.5-2
			c0-0.8-0.2-1.4-0.5-1.8c-0.3-0.4-0.8-0.6-1.3-0.6c-0.5,0-1,0.2-1.3,0.6C35.6,5.3,35.4,5.9,35.4,6.8 M32.8,6.8
			c0-1.4,0.4-2.5,1.2-3.3c0.8-0.8,1.9-1.2,3.2-1.2c1.4,0,2.5,0.4,3.3,1.1c0.8,0.8,1.2,1.8,1.2,3.2c0,1-0.2,1.8-0.5,2.5
			c-0.3,0.6-0.8,1.1-1.5,1.5c-0.6,0.4-1.4,0.5-2.4,0.5c-1,0-1.8-0.2-2.4-0.5c-0.6-0.3-1.1-0.8-1.5-1.5C33,8.6,32.8,7.8,32.8,6.8"/>
	</g>
	<g>
		<g>
			<g>
				<path class="st35" d="M70.9,13.5v-2.6l3.5-4.2l-3.5-4.2V0l4.6,5.6v2.2L70.9,13.5z"/>
			</g>
			<g>
				<path class="st37" d="M80.8,0v2.6l-3.5,4.2l3.5,4.2v2.6l-4.6-5.6V5.7L80.8,0z"/>
			</g>
		</g>
		<g>
			<path class="st37" d="M70.9,13.5h-1.2v-1.9c-1,1.3-2.3,1.9-3.9,1.9c-1.4,0-2.6-0.5-3.5-1.5c-0.9-1-1.4-2.2-1.4-3.6
				c0-1.4,0.5-2.6,1.4-3.6c1-1,2.1-1.5,3.5-1.5c1.6,0,2.9,0.7,3.8,2V0h1.2V13.5z M69.8,8.5c0-1.1-0.4-2-1.1-2.8
				C68,5,67.1,4.6,66,4.6c-1.5,0-2.6,0.6-3.3,1.9c-0.3,0.6-0.5,1.3-0.5,1.9c0,0.7,0.2,1.3,0.5,1.9c0.3,0.6,0.8,1.1,1.4,1.4
				c0.6,0.3,1.2,0.5,1.9,0.5c0.7,0,1.3-0.2,1.9-0.5c0.6-0.3,1.1-0.8,1.4-1.4C69.6,9.9,69.8,9.2,69.8,8.5z"/>
		</g>
	</g>
</g>
</svg>
