<svg xmlns="http://www.w3.org/2000/svg" width="20" height="20" viewBox="0 0 20 20"><g fill="#F13737"><path d="M8.8 19.495c.341.34.735.505 1.194.505.472 0 .861-.171 1.184-.505.322-.333.494-.724.494-1.183H8.307c0 .459.163.853.493 1.183zM19.936 16.766a13.614 13.614 0 0 1-1.774-3.703c-.399-1.303-.757-3.188-1.075-5.654-.186-1.435-.771-2.646-1.425-3.429a6.12 6.12 0 0 0-1.117-1.053 6.896 6.896 0 0 0-2.303-1.129 2.179 2.179 0 0 0-.798-1.282A2.256 2.256 0 0 0 9.994 0C9.458 0 8.977.176 8.56.515c-.417.34-.68.768-.789 1.282a6.889 6.889 0 0 0-2.314 1.129A6.161 6.161 0 0 0 4.34 3.979c-.647.777-1.228 1.994-1.414 3.428-.317 2.466-.685 4.35-1.084 5.653a13.904 13.904 0 0 1-1.764 3.705.596.596 0 0 0-.122.338c0 .102.022.188.077.287a.58.58 0 0 0 .538.316h18.871a.585.585 0 0 0 .537-.316.735.735 0 0 0 .065-.295c0-.12-.04-.225-.108-.329zm-18.269-.274A14.673 14.673 0 0 0 3.168 12.8c.344-1.327.658-3.081.964-5.238.266-1.876 1.117-3.054 2.181-3.759.754-.5 1.401-.763 2.157-.932a.583.583 0 0 0 .45-.581v-.021c0-.581.494-1.052 1.073-1.052.603 0 1.075.471 1.075 1.052v.021c0 .274.195.514.472.581.755.185 1.411.422 2.147.932.371.257.696.541.976.865.567.661 1.041 1.677 1.206 2.894.294 2.159.613 3.9.964 5.227s.854 2.564 1.513 3.704l-16.679-.001z"/></g></svg>