<?xml version="1.0" encoding="utf-8"?>
<!-- Generator: Adobe Illustrator 15.1.0, SVG Export Plug-In . SVG Version: 6.00 Build 0)  -->
<!DOCTYPE svg PUBLIC "-//W3C//DTD SVG 1.1//EN" "http://www.w3.org/Graphics/SVG/1.1/DTD/svg11.dtd">
<svg version="1.1" id="Layer_1" xmlns="http://www.w3.org/2000/svg" xmlns:xlink="http://www.w3.org/1999/xlink" x="0px" y="0px"
	 width="45px" height="45px" viewBox="0 0 45 45" enable-background="new 0 0 45 45" xml:space="preserve">
<g>
	<path fill="#F2653E" d="M34.313,15.417l-1.954,1.954c0.915,1.685,1.438,3.606,1.438,5.651c0,6.517-5.304,11.823-11.821,11.823
		c-6.514,0-11.82-5.307-11.82-11.823c0-6.514,5.307-11.822,11.82-11.822c2.049,0,3.967,0.522,5.655,1.44l1.952-1.953
		c-2.214-1.372-4.817-2.163-7.607-2.163c-7.995,0-14.498,6.504-14.498,14.498c0,7.998,6.503,14.496,14.498,14.496
		c7.996,0,14.497-6.498,14.497-14.496C36.474,20.23,35.685,17.632,34.313,15.417L34.313,15.417z M28.89,20.85l-2.349,2.338
		c-0.086,2.448-2.097,4.405-4.564,4.405c-2.522,0-4.567-2.049-4.567-4.571c0-2.466,1.953-4.475,4.399-4.561l2.35-2.34
		c-0.689-0.224-1.417-0.344-2.181-0.344c-3.993,0-7.249,3.253-7.249,7.246c0,3.994,3.255,7.246,7.249,7.246
		c3.995,0,7.244-3.252,7.244-7.246C29.221,22.266,29.11,21.531,28.89,20.85L28.89,20.85z M40.904,11.67l-1.954,1.953
		c1.545,2.784,2.428,5.989,2.428,9.398c0,10.7-8.702,19.401-19.401,19.401c-10.697,0-19.401-8.701-19.401-19.401
		c0-10.695,8.704-19.4,19.401-19.4c3.412,0,6.616,0.882,9.398,2.43l1.957-1.955c-3.318-2.001-7.207-3.149-11.355-3.149
		c-12.175,0-22.078,9.9-22.078,22.075c0,12.178,9.903,22.079,22.078,22.079s22.078-9.901,22.078-22.079
		C44.055,18.876,42.905,14.989,40.904,11.67L40.904,11.67z M38.005,11.725l-2.553-0.283L22.864,24.023
		c-0.521,0.524-1.37,0.524-1.893,0c-0.522-0.518-0.522-1.367,0-1.891L33.556,9.55l-0.284-2.556L40.368-0.1l0.946,3.786l3.786,0.945
		L38.005,11.725z M38.005,11.725"/>
</g>
</svg>
