<?xml version="1.0" encoding="utf-8"?>
<!-- Generator: Adobe Illustrator 15.1.0, SVG Export Plug-In . SVG Version: 6.00 Build 0)  -->
<!DOCTYPE svg PUBLIC "-//W3C//DTD SVG 1.1//EN" "http://www.w3.org/Graphics/SVG/1.1/DTD/svg11.dtd">
<svg version="1.1" id="Layer_1" xmlns="http://www.w3.org/2000/svg" xmlns:xlink="http://www.w3.org/1999/xlink" x="0px" y="0px"
	 width="90px" height="90px" viewBox="0 0 90 90" enable-background="new 0 0 90 90" xml:space="preserve">
<g>
	<g>
		<path fill="#4D4D4D" d="M76.006,43.923v-2.641h-2.093c-0.095-0.616-0.253-1.21-0.473-1.775l1.81-1.044l-1.322-2.289l-1.806,1.043
			c-0.387-0.478-0.82-0.913-1.3-1.299l1.045-1.807l-2.289-1.321L68.533,34.6c-0.564-0.22-1.159-0.378-1.775-0.472v-2.094h-2.642
			v2.094c-0.614,0.094-1.207,0.253-1.773,0.472l-1.045-1.811l-2.288,1.321l1.042,1.807c-0.478,0.387-0.912,0.822-1.298,1.299
			l-1.809-1.043l-1.321,2.288l1.812,1.045c-0.22,0.565-0.378,1.16-0.472,1.775h-2.096v2.641h2.096
			c0.094,0.615,0.252,1.209,0.472,1.773l-1.812,1.047l1.321,2.287l1.809-1.043c0.386,0.479,0.82,0.912,1.298,1.299l-1.042,1.809
			l2.288,1.32l1.046-1.811c0.565,0.221,1.158,0.377,1.772,0.473v2.094h2.642v-2.094c0.616-0.096,1.211-0.252,1.775-0.473
			l1.045,1.811l2.289-1.32l-1.045-1.809c0.479-0.387,0.913-0.82,1.3-1.301l1.806,1.045l1.322-2.287l-1.81-1.047
			c0.22-0.564,0.378-1.158,0.473-1.773H76.006z M65.438,48.546c-3.282,0-5.945-2.662-5.945-5.943c0-3.283,2.663-5.944,5.945-5.944
			s5.944,2.661,5.944,5.944C71.382,45.884,68.72,48.546,65.438,48.546L65.438,48.546z M65.438,48.546"/>
	</g>
	<g>
		<path fill="#4D4D4D" d="M70.569,72.034H19.431c-2.264,0-4.087,2.789-4.087,6.228c0,3.446,1.823,6.238,4.087,6.238h51.138
			c2.263,0,4.096-2.792,4.096-6.238C74.665,74.823,72.832,72.034,70.569,72.034L70.569,72.034z M70.569,72.034"/>
		<path fill="#4D4D4D" d="M55.421,67.812H34.576c-0.923,0,1.334,1.329,1.334,2.967c0,1.642-2.257,2.972-1.334,2.972h20.845
			c0.922,0-1.331-1.33-1.331-2.972C54.09,69.141,56.343,67.812,55.421,67.812L55.421,67.812z M55.421,67.812"/>
		<path fill="#4D4D4D" d="M14.315,40.395v10.547c0,1.744,1.385,3.162,3.078,3.162s3.066-1.418,3.066-3.162V40.395
			c0-1.746-1.373-3.163-3.066-3.163C15.692,37.232,14.315,38.649,14.315,40.395L14.315,40.395z M14.315,40.395"/>
		<path fill="#4D4D4D" d="M24.546,36.182v14.761c0,1.744,1.375,3.162,3.067,3.162c1.692,0,3.075-1.418,3.075-3.162V36.182
			c0-1.744-1.383-3.171-3.075-3.171C25.92,33.01,24.546,34.438,24.546,36.182L24.546,36.182z M24.546,36.182"/>
		<g>
			<path fill="#4D4D4D" d="M34.774,31.96v18.982c0,1.744,1.377,3.162,3.069,3.162c1.693,0,3.066-1.418,3.066-3.162V31.96
				c0-1.746-1.373-3.163-3.066-3.163C36.151,28.797,34.774,30.214,34.774,31.96L34.774,31.96z M34.774,31.96"/>
			<path fill="#4D4D4D" d="M85.914,6.656H4.096C1.834,6.656,0,8.546,0,10.878v52.721c0,2.324,1.833,4.213,4.095,4.213h78.078
				c-0.122-0.105-0.253-0.193-0.365-0.309l-5.666-5.844c-3.264,1.902-6.957,2.92-10.753,2.92c-5.163,0-10.062-1.838-13.99-5.203
				H8.182V15.091h73.637v11.887c3.563,4.135,5.525,9.388,5.525,14.968c0,3.904-0.991,7.711-2.823,11.076L90,58.681V10.869
				C90.009,8.546,88.176,6.656,85.914,6.656L85.914,6.656z M85.914,6.656"/>
		</g>
		<path fill="#4D4D4D" d="M81.146,55.509c-0.412-0.414-0.964-0.586-1.496-0.529l-0.861-0.889c2.88-3.359,4.46-7.625,4.46-12.145
			c0-4.916-1.852-9.543-5.227-13.011c-3.376-3.489-7.856-5.401-12.632-5.401c-4.77,0-9.249,1.912-12.624,5.401
			c-3.376,3.468-5.236,8.095-5.236,13.011c0,4.916,1.86,9.543,5.236,13.025c3.375,3.48,7.854,5.387,12.624,5.387
			c4.395,0,8.519-1.639,11.781-4.596l0.859,0.885c-0.056,0.551,0.112,1.107,0.524,1.531l6.152,6.346
			c0.355,0.377,0.822,0.547,1.291,0.547c0.468,0,0.943-0.184,1.299-0.547c0.711-0.732,0.711-1.932,0-2.664L81.146,55.509z
			 M75.433,52.292c-2.686,2.766-6.247,4.289-10.043,4.289c-3.787,0-7.35-1.523-10.034-4.281c-2.684-2.768-4.16-6.439-4.16-10.354
			c0-3.904,1.477-7.586,4.16-10.341c2.685-2.766,6.247-4.292,10.034-4.292c3.796,0,7.357,1.525,10.043,4.292
			c2.683,2.755,4.149,6.437,4.149,10.341C79.582,45.86,78.115,49.532,75.433,52.292L75.433,52.292z M75.433,52.292"/>
	</g>
</g>
</svg>
