<?xml version="1.0" encoding="utf-8"?>
<!-- Generator: Adobe Illustrator 15.0.0, SVG Export Plug-In . SVG Version: 6.00 Build 0)  -->
<!DOCTYPE svg PUBLIC "-//W3C//DTD SVG 1.1//EN" "http://www.w3.org/Graphics/SVG/1.1/DTD/svg11.dtd">
<svg version="1.1" id="Layer_1" xmlns="http://www.w3.org/2000/svg" xmlns:xlink="http://www.w3.org/1999/xlink" x="0px" y="0px"
	 width="36px" height="15.068px" viewBox="0 0 36 15.068" enable-background="new 0 0 36 15.068" xml:space="preserve">
<polygon fill="#FFFFFF" points="14.785,15.014 20.341,15.031 28.702,7.336 20.377,0 14.821,0 23.793,7.372 14.785,15.014 "/>
<polygon fill="none" points="14.785,15.014 20.341,15.031 28.702,7.336 20.377,0 14.821,0 23.793,7.372 14.785,15.014 "/>
<polygon fill="#FFFFFF" points="22.084,15.014 27.659,15.031 36.001,7.336 27.695,0 22.14,0 31.111,7.372 22.084,15.014 "/>
<polygon fill="none" points="22.084,15.014 27.659,15.031 36.001,7.336 27.695,0 22.14,0 31.111,7.372 22.084,15.014 "/>
<polygon fill="#FFFFFF" points="0.113,15.014 5.668,15.031 14.03,7.336 5.704,0 0.148,0 9.121,7.372 0.113,15.014 "/>
<polygon fill="none" points="0.113,15.014 5.668,15.031 14.03,7.336 5.704,0 0.148,0 9.121,7.372 0.113,15.014 "/>
<polygon fill="#FFFFFF" points="7.413,15.014 12.987,15.031 21.331,7.336 13.023,0 7.467,0 16.439,7.372 7.413,15.014 "/>
<polygon fill="none" points="7.413,15.014 12.987,15.031 21.331,7.336 13.023,0 7.467,0 16.439,7.372 7.413,15.014 "/>
<polygon fill="none" points="0.113,15.068 36.037,15.068 36.037,0.018 0.113,0.018 0.113,15.068 "/>
</svg>
