<?xml version="1.0" encoding="utf-8"?>
<!-- Generator: Adobe Illustrator 15.1.0, SVG Export Plug-In . SVG Version: 6.00 Build 0)  -->
<!DOCTYPE svg PUBLIC "-//W3C//DTD SVG 1.1//EN" "http://www.w3.org/Graphics/SVG/1.1/DTD/svg11.dtd">
<svg version="1.1" id="Layer_1" xmlns="http://www.w3.org/2000/svg" xmlns:xlink="http://www.w3.org/1999/xlink" x="0px" y="0px"
	 width="90px" height="90px" viewBox="0 0 90 90" enable-background="new 0 0 90 90" xml:space="preserve">
<g>
	<path fill="#4D4D4D" d="M90,50.625v-11.25h-8.91c-0.406-2.62-1.077-5.147-2.011-7.553l7.701-4.45l-5.625-9.744l-7.69,4.443
		c-1.648-2.032-3.493-3.889-5.537-5.531l4.449-7.695l-9.744-5.626l-4.449,7.708c-2.406-0.935-4.934-1.61-7.559-2.011V0h-11.25v8.916
		c-2.614,0.4-5.141,1.082-7.548,2.011L27.378,3.22l-9.746,5.625l4.438,7.695c-2.033,1.643-3.889,3.499-5.526,5.531l-7.702-4.442
		l-5.625,9.738l7.712,4.455c-0.934,2.405-1.609,4.933-2.01,7.553H0v11.25h8.921c0.401,2.62,1.076,5.147,2.01,7.553l-7.712,4.45
		l5.625,9.744l7.702-4.443c1.637,2.032,3.493,3.89,5.526,5.531l-4.438,7.695l9.746,5.626l4.449-7.707
		c2.406,0.934,4.933,1.604,7.548,2.01V90h11.25v-8.916c2.626-0.405,5.152-1.076,7.559-2.01l4.449,7.707l9.745-5.626l-4.449-7.695
		c2.044-1.643,3.89-3.499,5.537-5.537l7.69,4.443l5.625-9.739l-7.701-4.449c0.934-2.405,1.604-4.933,2.01-7.553H90z M45,77.145
		c-17.747,0-32.145-14.398-32.145-32.144c0-17.754,14.397-32.146,32.145-32.146c17.746,0,32.145,14.392,32.145,32.146
		C77.145,62.746,62.746,77.145,45,77.145L45,77.145z M45,70.313"/>
</g>
<path fill="#4D4D4D" d="M68.9,37.055c-4.84-4.839-12.705-4.839-17.545,0l-1.305,1.305l-1.336-1.383l-1.188,6.39l6.426-0.968
	l-1.527-1.581l1.346-1.347c3.504-3.503,9.209-3.503,12.711,0c3.504,3.504,3.504,9.208,0.001,12.712
	c-3.503,3.503-9.208,3.503-12.712,0L38.644,37.055c-4.839-4.839-12.705-4.839-17.543,0s-4.839,12.705,0,17.544
	s12.706,4.839,17.544,0l0.975-0.976l1.336,1.34l1.087-6.406l-6.41,1.067l1.574,1.579l-0.979,0.979
	c-3.503,3.503-9.208,3.503-12.712,0c-3.503-3.504-3.503-9.208,0-12.712c3.503-3.503,9.208-3.503,12.711,0l15.127,15.128
	c4.84,4.839,12.705,4.839,17.545,0C73.738,49.76,73.738,41.894,68.9,37.055z"/>
</svg>
