<?xml version="1.0" encoding="utf-8"?>
<!-- Generator: Adobe Illustrator 15.1.0, SVG Export Plug-In . SVG Version: 6.00 Build 0)  -->
<!DOCTYPE svg PUBLIC "-//W3C//DTD SVG 1.1//EN" "http://www.w3.org/Graphics/SVG/1.1/DTD/svg11.dtd">
<svg version="1.1" id="Layer_1" xmlns="http://www.w3.org/2000/svg" xmlns:xlink="http://www.w3.org/1999/xlink" x="0px" y="0px"
	 width="50px" height="50px" viewBox="0 0 50 50" enable-background="new 0 0 50 50" xml:space="preserve">
<g>
	<g>
		<rect x="23.92" y="24.872" fill="#4D4D4D" width="2.744" height="2.734"/>
		<rect x="23.92" y="30.341" fill="#4D4D4D" width="2.744" height="2.722"/>
		<rect x="23.92" y="35.796" fill="#4D4D4D" width="2.744" height="2.735"/>
		<rect x="23.92" y="41.266" fill="#4D4D4D" width="2.744" height="2.734"/>
		<path fill="#4978BC" d="M27.105,9.308c5.34,0,9.994,2.97,13.676,8.263l2.67-1.987C39.104,9.308,33.441,6,27.105,6
			c-5.34,0-10.338,2.646-14.343,7.277l-3.989-3.97v9.906h9.996l-3.663-3.631C18.444,11.613,22.774,9.308,27.105,9.308L27.105,9.308
			L27.105,9.308z M27.105,9.308"/>
	</g>
	<g>
		<path fill="#4978BC" d="M16.634,29.446c-1.809,0-3.227,1.026-3.353,1.15l1.544,2.049c0,0,0.908-0.637,1.809-0.637
			c1.81,0,1.936,1.53,1.936,2.043c-0.517-0.125-1.418-0.381-2.578-0.125c-1.809,0.381-3.617,2.555-2.71,4.985
			c0.901,2.306,3.996,2.692,5.288,0.769v1.28h2.584v-6.778C21.153,30.729,18.701,29.446,16.634,29.446L16.634,29.446z
			 M15.342,37.763c-0.126-2.431,1.936-2.431,3.228-2.306v1.281C18.569,38.274,15.601,39.681,15.342,37.763L15.342,37.763z
			 M15.342,37.763"/>
		<path fill="#4978BC" d="M9.406,41.092h2.709L7.988,25.737H4.501L0.5,41.092h2.71l1.291-5.122h3.487L9.406,41.092z M5.145,33.415
			l1.034-4.099l1.159,4.099H5.145z M5.145,33.415"/>
	</g>
	<g>
		<path fill="#444444" d="M31.311,40.832V27.847h-1.467c-0.191,0-0.352,0.158-0.352,0.35v14.338c0,0.194,0.16,0.352,0.352,0.352
			h16.719c0.197,0,0.355-0.157,0.355-0.352V41.18H31.662C31.467,41.18,31.311,41.023,31.311,40.832L31.311,40.832z M31.311,40.832"
			/>
		<path fill="#444444" d="M49.148,25.381H32.43c-0.197,0-0.352,0.158-0.352,0.35v14.338c0,0.194,0.158,0.353,0.352,0.353h16.719
			c0.193,0,0.352-0.158,0.352-0.353V25.73C49.5,25.539,49.342,25.381,49.148,25.381L49.148,25.381z M36.762,26.685
			c1.035,0,1.873,0.835,1.873,1.859c0,1.028-0.838,1.859-1.873,1.859c-1.037,0-1.877-0.831-1.877-1.859
			C34.885,27.52,35.725,26.685,36.762,26.685L36.762,26.685z M48.354,36.092H33.416v-0.144l2.947-3.337l1.658,1.108l1.934-3.283
			l2.244,1.578l2.031-4.171l4.123,8.09V36.092z M48.354,36.092"/>
	</g>
</g>
</svg>
