<?xml version="1.0" encoding="utf-8"?>
<!-- Generator: Adobe Illustrator 15.1.0, SVG Export Plug-In . SVG Version: 6.00 Build 0)  -->
<!DOCTYPE svg PUBLIC "-//W3C//DTD SVG 1.1//EN" "http://www.w3.org/Graphics/SVG/1.1/DTD/svg11.dtd">
<svg version="1.1" id="Layer_1" xmlns="http://www.w3.org/2000/svg" xmlns:xlink="http://www.w3.org/1999/xlink" x="0px" y="0px"
	 width="50px" height="50px" viewBox="0 0 50 50" enable-background="new 0 0 50 50" xml:space="preserve">
<g>
	<g>
		<rect x="23.921" y="24.872" fill="#4D4D4D" width="2.743" height="2.734"/>
		<rect x="23.921" y="30.341" fill="#4D4D4D" width="2.743" height="2.722"/>
		<rect x="23.921" y="35.797" fill="#4D4D4D" width="2.743" height="2.734"/>
		<rect x="23.921" y="41.266" fill="#4D4D4D" width="2.743" height="2.734"/>
		<path fill="#4978BC" d="M25.12,9.307L25.12,9.307c4.329,0,8.66,2.307,11.998,6.276l-3.664,3.631h9.996V9.307l-3.988,3.971
			C35.457,8.646,30.459,6,25.12,6c-6.336,0-11.999,3.307-16.347,9.583l2.671,1.987C15.125,12.277,19.78,9.307,25.12,9.307
			L25.12,9.307z M25.12,9.307"/>
	</g>
	<g>
		<path fill="#444444" d="M16.634,29.447c-1.808,0-3.227,1.025-3.353,1.15l1.545,2.047c0,0,0.907-0.635,1.808-0.635
			c1.81,0,1.936,1.53,1.936,2.042c-0.517-0.125-1.418-0.381-2.578-0.125c-1.809,0.382-3.618,2.556-2.71,4.985
			c0.901,2.305,3.996,2.693,5.288,0.768v1.282h2.584v-6.778C21.153,30.729,18.702,29.447,16.634,29.447L16.634,29.447z
			 M15.342,37.763c-0.126-2.431,1.936-2.431,3.228-2.306v1.281C18.569,38.275,15.601,39.68,15.342,37.763L15.342,37.763z
			 M15.342,37.763"/>
		<path fill="#444444" d="M9.406,41.093h2.709L7.987,25.736H4.502L0.5,41.093h2.71l1.292-5.122h3.485L9.406,41.093z M5.145,33.416
			l1.035-4.1l1.159,4.1H5.145z M5.145,33.416"/>
	</g>
	<g>
		<path fill="#4978BC" d="M31.311,40.832V27.847h-1.467c-0.192,0-0.352,0.157-0.352,0.349v14.339c0,0.194,0.159,0.353,0.352,0.353
			h16.72c0.196,0,0.354-0.158,0.354-0.353V41.18H31.662C31.466,41.18,31.311,41.023,31.311,40.832L31.311,40.832z M31.311,40.832"/>
		<path fill="#4978BC" d="M49.148,25.381H32.43c-0.197,0-0.353,0.158-0.353,0.35v14.338c0,0.195,0.159,0.353,0.353,0.353h16.719
			c0.192,0,0.352-0.157,0.352-0.353V25.73C49.5,25.539,49.341,25.381,49.148,25.381L49.148,25.381z M36.762,26.685
			c1.035,0,1.872,0.835,1.872,1.86c0,1.027-0.837,1.858-1.872,1.858c-1.037,0-1.876-0.831-1.876-1.858
			C34.886,27.52,35.725,26.685,36.762,26.685L36.762,26.685z M48.354,36.093H33.415v-0.145l2.947-3.337l1.659,1.108l1.935-3.283
			l2.244,1.579l2.03-4.172l4.123,8.09V36.093z M48.354,36.093"/>
	</g>
</g>
</svg>
