<?xml version="1.0" encoding="utf-8"?>
<!-- Generator: Adobe Illustrator 15.0.0, SVG Export Plug-In . SVG Version: 6.00 Build 0)  -->
<!DOCTYPE svg PUBLIC "-//W3C//DTD SVG 1.1//EN" "http://www.w3.org/Graphics/SVG/1.1/DTD/svg11.dtd">
<svg version="1.1" xmlns="http://www.w3.org/2000/svg" xmlns:xlink="http://www.w3.org/1999/xlink" x="0px" y="0px" width="92px"
	 height="40px" viewBox="0 0 92 40" enable-background="new 0 0 92 40" xml:space="preserve">
<g id="Layer_1">
	<polygon fill="#4A79BC" points="45.53,14.505 41.84,14.505 42.841,10.553 46.53,10.553 	"/>
	<polygon fill="#4A79BC" points="50.484,14.505 46.794,14.505 47.796,10.553 51.485,10.553 	"/>
	<polygon fill="#4A79BC" points="55.466,14.505 51.776,14.505 52.777,10.553 56.467,10.553 	"/>
	<polygon fill="#4A79BC" points="60.498,14.505 56.807,14.505 57.809,10.553 61.498,10.553 	"/>
	<polygon fill="#4A79BC" points="67.931,14.505 64.238,14.505 65.242,10.553 68.932,10.553 	"/>
	<polygon fill="#4A79BC" points="72.938,14.505 69.249,14.505 70.249,10.553 73.94,10.553 	"/>
	<polygon fill="#4A79BC" points="77.912,14.504 74.22,14.504 75.221,10.552 78.908,10.552 	"/>
	<polygon fill="#4A79BC" points="82.874,14.504 79.186,14.504 80.184,10.552 83.873,10.552 	"/>
	<polygon fill="#4A79BC" points="76.649,19.638 72.959,19.638 73.961,15.686 77.651,15.686 	"/>
	<polygon fill="#4A79BC" points="62.948,19.638 59.26,19.638 60.259,15.686 63.95,15.686 	"/>
	<polygon fill="#4A79BC" points="58.021,24.677 54.332,24.677 55.331,20.724 59.021,20.724 	"/>
	<polygon fill="#4A79BC" points="49.245,19.645 45.555,19.645 46.556,15.691 50.246,15.691 	"/>
	<polygon fill="#4A79BC" points="48.006,24.677 44.318,24.677 45.317,20.724 49.008,20.724 	"/>
	<polygon fill="#4A79BC" points="65.444,24.672 61.754,24.672 62.756,20.723 66.444,20.723 	"/>
	<polygon fill="#4A79BC" points="75.444,24.686 71.757,24.686 72.758,20.731 76.449,20.731 	"/>
	<g>
		<g>
			<g>
				<linearGradient id="SVGID_1_" gradientUnits="userSpaceOnUse" x1="12.5493" y1="27.7793" x2="11.6091" y2="0.8543">
					<stop  offset="0" style="stop-color:#F08A22"/>
					<stop  offset="1" style="stop-color:#FDB734"/>
				</linearGradient>
				<path fill="url(#SVGID_1_)" d="M3.644,27.933l3.825,0.023l3.562-14.636h4.427l0.949-2.678l-4.585-0.011l1.226-5.296
					c0,0,0.316-1.581,1.58-1.581h5.93c0,0,0.354-2.922-1.225-2.922l-6.998-0.004c0.02,0.018-1.72-0.02-2.292,2.608l-1.948,7.284
					c0,0-1.308-0.009-2.283-0.009c-0.976,0-2.687,2.647-2.253,2.647c0.436,0,3.806,0.01,3.806,0.01L3.644,27.933z"/>
			</g>
			<g>
				<linearGradient id="SVGID_2_" gradientUnits="userSpaceOnUse" x1="22.1294" y1="24.9512" x2="21.2949" y2="1.0546">
					<stop  offset="0" style="stop-color:#F08A22"/>
					<stop  offset="1" style="stop-color:#FDB734"/>
				</linearGradient>
				<path fill="url(#SVGID_2_)" d="M22.495,1.013h4.032l-5.535,19.659c0,0-0.296,1.402,1.441,1.402L21.23,24.98
					c-0.731,0.041-2.134,0-3.083,0c-0.689,0-1.522-0.75-1.266-2.451L22.495,1.013z"/>
			</g>
			<g>
				<linearGradient id="SVGID_3_" gradientUnits="userSpaceOnUse" x1="28.1724" y1="25.1357" x2="27.6617" y2="10.5128">
					<stop  offset="0" style="stop-color:#F08A22"/>
					<stop  offset="1" style="stop-color:#FDB734"/>
				</linearGradient>
				<path fill="url(#SVGID_3_)" d="M26.557,10.551h3.717l-2.798,9.648c0,0-0.474,1.815,0.474,1.895l4.744-0.051
					c0,0,0.554,1.633-1.264,2.979c0,0-5.079,0-6.72,0c-0.869,0-1.582-1.286-1.188-2.928L26.557,10.551z"/>
			</g>
			<g>
				<linearGradient id="SVGID_4_" gradientUnits="userSpaceOnUse" x1="30.7305" y1="39.1855" x2="29.74" y2="10.823">
					<stop  offset="0" style="stop-color:#F08A22"/>
					<stop  offset="1" style="stop-color:#FDB734"/>
				</linearGradient>
				<path fill="url(#SVGID_4_)" d="M30.294,34.847l6.614-24.274h3.478l-6.823,25.912c0,0-0.5,2.687-2.45,2.687c0,0-9.883,0-10.001,0
					c-0.688,0-1.699-1.263-0.593-2.687c0,0,7.946,0,8.459,0C30.006,36.366,30.294,34.847,30.294,34.847z"/>
			</g>
		</g>
	</g>
	<g opacity="0.3">
		<path fill="#FFFFFF" d="M15.458,13.32l0.949-2.678l-4.585-0.011l1.226-5.296c0,0,0.316-1.581,1.58-1.581h5.93
			c0,0,0.354-2.922-1.225-2.922l-6.998-0.004c0.02,0.018-1.72-0.02-2.292,2.608l-1.948,7.284c0,0-1.308-0.009-2.283-0.009
			c-0.324,0-0.732,0.295-1.114,0.687c1.777,1.061,3.849,1.974,6.144,2.699l0.188-0.777H15.458z"/>
		<path fill="#FFFFFF" d="M22.495,1.013l-3.834,14.702c1.19,0.13,2.412,0.218,3.656,0.255l4.21-14.957H22.495z"/>
		<path fill="#FFFFFF" d="M26.558,10.551l-1.434,5.424c1.238-0.036,2.452-0.119,3.64-0.244l1.512-5.181H26.558z"/>
		<path fill="#FFFFFF" d="M36.909,10.562l-1.039,3.797c1.37-0.396,2.666-0.856,3.876-1.375l0.641-2.422H36.909z"/>
	</g>
	<path d="M87.184,14.508c-1.093,0-1.981-0.889-1.981-1.983c0-1.092,0.889-1.979,1.981-1.979c1.095,0,1.985,0.888,1.985,1.979
		C89.169,13.62,88.279,14.508,87.184,14.508z M87.184,10.77c-0.969,0-1.757,0.788-1.757,1.756c0,0.971,0.788,1.759,1.757,1.759
		c0.971,0,1.761-0.789,1.761-1.759C88.945,11.557,88.155,10.77,87.184,10.77z"/>
	<g>
		<path d="M87.984,13.46h-0.261l-0.17-0.485c-0.015-0.042-0.036-0.081-0.061-0.115c-0.026-0.036-0.056-0.066-0.09-0.092
			c-0.034-0.025-0.072-0.045-0.114-0.059c-0.041-0.014-0.085-0.022-0.131-0.022h-0.444v0.773h-0.239v-1.808h0.801
			c0.049,0,0.095,0,0.14,0.003c0.044,0.001,0.086,0.007,0.125,0.015c0.04,0.009,0.077,0.021,0.113,0.036
			c0.034,0.016,0.068,0.037,0.101,0.064c0.054,0.048,0.095,0.107,0.124,0.176s0.043,0.14,0.043,0.212
			c0,0.063-0.01,0.122-0.028,0.174c-0.019,0.053-0.046,0.1-0.082,0.141c-0.035,0.041-0.078,0.076-0.128,0.104
			c-0.05,0.028-0.107,0.048-0.168,0.061v0.003c0.126,0.041,0.223,0.15,0.29,0.328L87.984,13.46z M86.714,12.472h0.538
			c0.074,0,0.138-0.006,0.191-0.018c0.053-0.01,0.096-0.029,0.131-0.053c0.035-0.024,0.06-0.057,0.076-0.097
			c0.016-0.04,0.024-0.09,0.024-0.147c0-0.104-0.032-0.181-0.097-0.231c-0.064-0.049-0.161-0.075-0.292-0.075h-0.572V12.472z"/>
	</g>
</g>
<g id="Layer_2" display="none">
	<g display="inline">
		<text transform="matrix(1 0 0 1 22.0044 71.2383)" font-family="'MyriadPro-Regular'" font-size="25.9432">DATA</text>
		<text transform="matrix(1 0 0 1 164.6445 71.3105)" font-family="'MyriadPro-Regular'" font-size="25.9432">ECONOMIC VALUE</text>
		<g>
			<polygon fill="#F78F28" points="81.007,71.472 91.121,71.49 106.318,62.425 91.189,53.78 81.08,53.78 97.417,62.461 			"/>
			<polygon fill="#F78F28" points="99.761,71.472 109.876,71.49 125.072,62.425 109.944,53.78 99.834,53.78 116.172,62.461 			"/>
			<polygon fill="#F78F28" points="118.516,71.472 128.63,71.49 143.826,62.425 128.698,53.78 118.589,53.78 134.926,62.461 			"/>
			<polygon fill="#F78F28" points="137.27,71.472 147.384,71.49 162.58,62.425 147.452,53.78 137.343,53.78 153.68,62.461 			"/>
		</g>
	</g>
</g>
</svg>
