<?xml version="1.0" encoding="utf-8"?>
<!-- Generator: Adobe Illustrator 15.1.0, SVG Export Plug-In . SVG Version: 6.00 Build 0)  -->
<!DOCTYPE svg PUBLIC "-//W3C//DTD SVG 1.1//EN" "http://www.w3.org/Graphics/SVG/1.1/DTD/svg11.dtd">
<svg version="1.1" id="Layer_1" xmlns="http://www.w3.org/2000/svg" xmlns:xlink="http://www.w3.org/1999/xlink" x="0px" y="0px"
	 width="13px" height="13px" viewBox="0 0 13 13" enable-background="new 0 0 13 13" xml:space="preserve">
<g>
	<path fill="#046599" d="M6.5,0C2.91,0,0,2.91,0,6.5S2.91,13,6.5,13S13,10.09,13,6.5S10.09,0,6.5,0L6.5,0z M6.5,12.548
		c-3.34,0-6.048-2.708-6.048-6.048S3.16,0.452,6.5,0.452S12.548,3.16,12.548,6.5S9.84,12.548,6.5,12.548L6.5,12.548z M6.5,11.984"/>
	<rect x="6.094" y="8.938" fill="#046599" width="0.813" height="0.813"/>
	<path fill="#046599" d="M8.067,3.813C7.902,3.644,7.694,3.51,7.438,3.405C7.18,3.301,6.876,3.25,6.518,3.25
		c-0.304,0-0.581,0.051-0.833,0.155C5.433,3.51,5.215,3.653,5.033,3.84C4.852,4.025,4.711,4.208,4.614,4.469
		C4.517,4.73,4.469,4.875,4.469,5.281h0.829c0-0.406,0.107-0.713,0.329-0.978c0.218-0.265,0.514-0.376,0.891-0.376
		c0.366,0,0.641,0.1,0.817,0.278c0.174,0.178,0.263,0.434,0.263,0.757c0,0.251-0.082,0.476-0.246,0.672
		c-0.162,0.197-0.34,0.389-0.53,0.57C6.629,6.385,6.475,6.578,6.315,6.778c-0.159,0.2-0.221,0.433-0.221,0.698v0.648h0.813v-0.35
		c0-0.208,0.03-0.389,0.111-0.546c0.079-0.157,0.177-0.301,0.301-0.429c0.12-0.13,0.25-0.254,0.394-0.376
		c0.139-0.121,0.273-0.25,0.394-0.385c0.123-0.136,0.226-0.288,0.304-0.457C8.49,5.415,8.531,5.217,8.531,4.987
		c0-0.2-0.035-0.403-0.111-0.61C8.347,4.168,8.228,3.98,8.067,3.813L8.067,3.813z M8.067,3.813"/>
</g>
</svg>
