<?xml version="1.0" encoding="utf-8"?>
<!-- Generator: Adobe Illustrator 15.1.0, SVG Export Plug-In . SVG Version: 6.00 Build 0)  -->
<!DOCTYPE svg PUBLIC "-//W3C//DTD SVG 1.1//EN" "http://www.w3.org/Graphics/SVG/1.1/DTD/svg11.dtd">
<svg version="1.1" id="Layer_1" xmlns="http://www.w3.org/2000/svg" xmlns:xlink="http://www.w3.org/1999/xlink" x="0px" y="0px"
	 width="160px" height="140px" viewBox="0 0 160 140" enable-background="new 0 0 160 140" xml:space="preserve">
<path fill="#FFFFFF" d="M150.257,77.067l-30.621,50.377c-2.384,3.954-6.623,6.316-11.267,6.302l-59.216-0.1
	c-4.982-0.018-9.69-2.803-12.224-7.285L9.038,77.123c-2.533-4.492-2.5-9.918,0.086-14.176l30.617-50.374
	C42.14,8.624,46.38,6.247,51.02,6.255l59.198,0.116c5.007,0.004,9.7,2.813,12.231,7.282l27.896,49.244
	C152.869,67.381,152.858,72.809,150.257,77.067z"/>
<g>
	<path fill="#F2653E" d="M157.931,62.199L127.165,8.12c-2.79-4.911-7.972-7.985-13.492-7.996L48.371,0
		C43.26-0.01,38.585,2.597,35.937,6.931L2.167,62.245c-2.857,4.68-2.889,10.649-0.096,15.563l30.763,54.083
		c2.794,4.912,7.986,7.974,13.485,7.991L111.621,140c5.124,0.017,9.801-2.591,12.439-6.929l33.774-55.313
		C160.689,73.086,160.721,67.114,157.931,62.199z M150.565,77.033l-30.62,50.155c-2.385,3.937-6.623,6.289-11.268,6.274
		l-59.216-0.101c-4.982-0.017-9.69-2.79-12.224-7.253L9.347,77.088c-2.533-4.473-2.5-9.874,0.085-14.113l30.617-50.152
		c2.4-3.932,6.64-6.298,11.28-6.292l59.197,0.116c5.008,0.004,9.701,2.801,12.231,7.251l27.897,49.027
		C153.178,67.389,153.167,72.792,150.565,77.033z"/>
</g>
</svg>
