<?xml version="1.0" encoding="utf-8"?>
<!-- Generator: Adobe Illustrator 15.1.0, SVG Export Plug-In . SVG Version: 6.00 Build 0)  -->
<!DOCTYPE svg PUBLIC "-//W3C//DTD SVG 1.1//EN" "http://www.w3.org/Graphics/SVG/1.1/DTD/svg11.dtd">
<svg version="1.1" id="Layer_1" xmlns="http://www.w3.org/2000/svg" xmlns:xlink="http://www.w3.org/1999/xlink" x="0px" y="0px"
	 width="40px" height="40px" viewBox="0 0 40 40" enable-background="new 0 0 40 40" xml:space="preserve">
<g>
	<path fill="#6D6E71" d="M29.286,9.802c0.041-0.168,0.068-0.34,0.077-0.518c0.009-0.177,0-0.352-0.022-0.523
		c-0.455,0.141-0.959-0.061-1.182-0.499c-0.227-0.439-0.093-0.966,0.287-1.254c-0.251-0.235-0.547-0.427-0.871-0.565
		c-0.108,0.464-0.533,0.801-1.026,0.774c-0.492-0.024-0.883-0.402-0.94-0.876c-0.337,0.103-0.65,0.263-0.927,0.474
		c0.351,0.323,0.427,0.86,0.16,1.275c-0.27,0.414-0.792,0.562-1.23,0.376c-0.04,0.167-0.065,0.339-0.075,0.517
		c-0.008,0.177,0,0.352,0.021,0.522c0.456-0.141,0.962,0.062,1.186,0.5c0.223,0.441,0.09,0.966-0.29,1.253
		c0.251,0.238,0.547,0.429,0.873,0.565c0.105-0.464,0.532-0.8,1.025-0.774s0.882,0.403,0.938,0.875
		c0.341-0.101,0.653-0.262,0.929-0.471c-0.35-0.325-0.427-0.862-0.157-1.276C28.327,9.763,28.849,9.616,29.286,9.802z M27.488,9.229
		c-0.025,0.528-0.478,0.937-1.007,0.91c-0.531-0.028-0.939-0.479-0.911-1.008C25.598,8.6,26.05,8.192,26.578,8.22
		C27.111,8.246,27.518,8.698,27.488,9.229z M10.755,13.517c0.225,1.388,1.531,2.332,2.919,2.107
		c1.388-0.225,2.331-1.531,2.107-2.918c-0.225-1.387-1.531-2.332-2.919-2.107C11.475,10.823,10.531,12.129,10.755,13.517z
		 M12.389,13.252c-0.077-0.485,0.252-0.942,0.738-1.02c0.484-0.077,0.942,0.251,1.02,0.736c0.078,0.487-0.251,0.943-0.737,1.022
		C12.925,14.069,12.469,13.738,12.389,13.252z M7.753,13.712c0.057,0.532,0.191,1.045,0.391,1.524
		c0.599-0.343,1.371-0.195,1.797,0.372c0.424,0.564,0.349,1.348-0.146,1.828c0.405,0.327,0.859,0.599,1.352,0.803
		c0.181-0.667,0.833-1.108,1.535-1.008c0.699,0.1,1.202,0.707,1.189,1.395c0.531-0.058,1.042-0.19,1.523-0.39
		c-0.342-0.599-0.193-1.372,0.371-1.797c0.566-0.424,1.35-0.349,1.827,0.147c0.329-0.406,0.601-0.859,0.803-1.354
		c-0.665-0.182-1.106-0.832-1.006-1.533c0.099-0.701,0.707-1.202,1.395-1.19c-0.056-0.531-0.19-1.042-0.391-1.522
		c-0.599,0.342-1.371,0.193-1.795-0.372c-0.425-0.566-0.349-1.349,0.147-1.828c-0.406-0.328-0.862-0.599-1.354-0.802
		c-0.18,0.666-0.833,1.108-1.534,1.008c-0.7-0.1-1.202-0.707-1.189-1.397c-0.531,0.058-1.043,0.191-1.524,0.391
		c0.342,0.6,0.194,1.373-0.372,1.797c-0.565,0.425-1.35,0.351-1.828-0.146c-0.328,0.406-0.599,0.86-0.803,1.353
		c0.666,0.181,1.108,0.833,1.009,1.533C9.05,13.223,8.441,13.725,7.753,13.712z M10.177,12.67c0.244-1.707,1.826-2.893,3.533-2.649
		c1.707,0.244,2.893,1.825,2.648,3.532c-0.244,1.707-1.826,2.891-3.533,2.649C11.12,15.958,9.933,14.376,10.177,12.67z
		 M18.841,9.934c0.356,0.182,0.528,0.58,0.439,0.953c0.203,0.051,0.415,0.088,0.632,0.104c0.234,0.018,0.465,0.013,0.693-0.009
		c-0.06-0.402,0.177-0.798,0.575-0.928c0.395-0.128,0.812,0.047,1.005,0.396c0.364-0.221,0.686-0.5,0.956-0.827
		c-0.337-0.239-0.458-0.696-0.264-1.076c0.193-0.378,0.632-0.549,1.023-0.418c0.051-0.206,0.087-0.416,0.104-0.635
		c0.018-0.202,0.016-0.405,0-0.601c-0.401,0.057-0.8-0.178-0.928-0.578c-0.133-0.406,0.059-0.837,0.43-1.021
		C23.286,4.911,23,4.569,22.661,4.285c-0.236,0.348-0.701,0.475-1.086,0.278c-0.389-0.198-0.559-0.653-0.41-1.05
		c-0.212-0.056-0.429-0.094-0.655-0.11c-0.203-0.017-0.405-0.016-0.601,0c0.108,0.429-0.132,0.875-0.56,1.014
		c-0.433,0.142-0.896-0.086-1.055-0.507c-0.379,0.222-0.718,0.508-1.001,0.846c0.369,0.23,0.506,0.707,0.305,1.103
		c-0.202,0.395-0.671,0.565-1.075,0.4c-0.052,0.207-0.089,0.42-0.106,0.639c-0.02,0.239-0.015,0.473,0.01,0.703
		c0.398-0.053,0.79,0.182,0.918,0.579c0.126,0.388-0.043,0.801-0.384,0.997c0.225,0.368,0.511,0.697,0.845,0.97
		C18.053,9.848,18.482,9.752,18.841,9.934z M18.182,7.036c0.086-1.121,1.067-1.958,2.189-1.87c1.121,0.089,1.959,1.068,1.871,2.19
		c-0.089,1.122-1.069,1.959-2.191,1.87C18.931,9.139,18.092,8.157,18.182,7.036z M19.438,7.136c0.033-0.428,0.407-0.748,0.835-0.713
		c0.427,0.033,0.744,0.406,0.711,0.835c-0.033,0.427-0.405,0.746-0.834,0.712C19.724,7.936,19.405,7.563,19.438,7.136z M8.408,40
		h16.967c0.774-3.64-0.374-5.228,0.711-6.674c1.084-1.445,4.015-0.917,6.155-1.382c2.138-0.465,1.552-3.437,1.552-3.437
		c-0.335-1.238,0.091-1.367,0.091-1.367c0.784-0.596,0.438-1.317,0.438-1.317c-0.257-0.566-0.313-0.411-0.297-0.517
		c0.017-0.106,0.659-0.258,0.814-0.954c0.155-0.697-0.866-1.861-0.038-2.015c2.354-0.438,2.182-1.55,2.182-1.55
		c0-0.543-2.789-4.377-2.789-4.377c-0.439-0.619-0.879-1.163-0.723-1.51c0.155-0.348,0.851-1.626,0.683-2.498
		c-0.167-0.87-0.175-1.725-1.865-5.551C30.594,3.027,26.092,0,19.209,0C11.533,0,4.264,4.967,4.264,14.14
		c0,7.129,4.449,10.52,4.846,14.518C9.266,30.231,8.408,40,8.408,40z M9.243,18.239c-0.994-0.933-2.248-2.367-2.347-4.138
		c-0.182-3.268,1.125-6.277,3.68-8.474c2.244-1.93,5.311-2.993,8.633-2.993c2.783,0,5.269,0.572,7.194,1.654
		c1.623,0.912,2.821,2.162,3.471,3.616c0.061,0.159,0.967,2.608-0.514,3.777c-0.571,0.451-1.955,0.821-3.558,1.248
		c-1.893,0.505-6.26,2.982-9.477,5.685C14.675,20.001,10.725,19.628,9.243,18.239z"/>
</g>
</svg>
