<?xml version="1.0" encoding="utf-8"?>
<!-- Generator: Adobe Illustrator 15.1.0, SVG Export Plug-In . SVG Version: 6.00 Build 0)  -->
<!DOCTYPE svg PUBLIC "-//W3C//DTD SVG 1.1//EN" "http://www.w3.org/Graphics/SVG/1.1/DTD/svg11.dtd">
<svg version="1.1" id="Layer_1" xmlns="http://www.w3.org/2000/svg" xmlns:xlink="http://www.w3.org/1999/xlink" x="0px" y="0px"
	 width="166px" height="40px" viewBox="0 0 166 40" enable-background="new 0 0 166 40" xml:space="preserve">
<g>
	<g>
		<path fill="#E12829" d="M89.602,30.743c0,1.687-1.368,3.052-3.051,3.052H65.188c-1.682,0-3.049-1.365-3.049-3.052V9.382
			c0-1.684,1.367-3.051,3.049-3.051h21.363c1.683,0,3.051,1.367,3.051,3.051V30.743z"/>
		<path fill="#4E80C0" d="M120.596,30.743c0,1.687-1.367,3.052-3.051,3.052h-21.36c-1.687,0-3.053-1.365-3.053-3.052V9.382
			c0-1.684,1.366-3.051,3.053-3.051h21.36c1.684,0,3.051,1.367,3.051,3.051V30.743z"/>
		<path fill="#F68F34" d="M58.607,30.743c0,1.687-1.367,3.052-3.052,3.052H34.194c-1.685,0-3.05-1.365-3.05-3.052V9.382
			c0-1.684,1.365-3.051,3.05-3.051h21.361c1.685,0,3.052,1.367,3.052,3.051V30.743z"/>
		<path fill="#5CA545" d="M27.613,30.743c0,1.687-1.367,3.052-3.052,3.052H3.2c-1.684,0-3.051-1.365-3.051-3.052V9.382
			c0-1.684,1.368-3.051,3.051-3.051h21.361c1.686,0,3.052,1.367,3.052,3.051V30.743z"/>
		<polygon fill="#FFFFFF" points="5.603,11.397 10.605,11.397 17.133,20.989 17.133,11.397 22.183,11.397 22.183,28.733 
			17.133,28.733 10.641,19.213 10.641,28.733 5.603,28.733 		"/>
		<polygon fill="#FFFFFF" points="37.892,11.397 52.25,11.397 52.25,15.097 43.261,15.097 43.261,17.854 51.599,17.854 
			51.599,21.389 43.261,21.389 43.261,24.809 52.511,24.809 52.511,28.733 37.892,28.733 		"/>
		<polygon fill="#FFFFFF" points="98.586,11.397 103.587,11.397 110.116,20.989 110.116,11.397 115.168,11.397 115.168,28.733 
			110.116,28.733 103.625,19.213 103.625,28.733 98.586,28.733 		"/>
		<path fill="#FFFFFF" d="M72.222,20.1c0,1.75,0.327,3.007,0.977,3.772c0.65,0.766,1.535,1.147,2.655,1.147
			c1.152,0,2.04-0.373,2.673-1.122c0.629-0.748,0.947-2.093,0.947-4.034c0-1.631-0.331-2.823-0.988-3.578
			c-0.658-0.752-1.553-1.128-2.679-1.128c-1.082,0-1.949,0.383-2.603,1.146C72.549,17.069,72.222,18.335,72.222,20.1 M66.864,20.075
			c0-2.829,0.79-5.033,2.366-6.609c1.577-1.578,3.772-2.366,6.587-2.366c2.886,0,5.11,0.775,6.671,2.325
			c1.562,1.549,2.342,3.72,2.342,6.511c0,2.028-0.341,3.688-1.022,4.985c-0.684,1.296-1.669,2.307-2.957,3.027
			s-2.895,1.081-4.819,1.081c-1.955,0-3.576-0.311-4.855-0.934c-1.28-0.622-2.319-1.609-3.118-2.955
			C67.264,23.791,66.864,22.104,66.864,20.075"/>
	</g>
	<g>
		<g>
			<g>
				<path fill="#F68F34" d="M145.843,33.788v-5.263l7.094-8.472l-7.094-8.473V6.318l9.39,11.479v4.509L145.843,33.788z"/>
			</g>
			<g>
				<path fill="#4D4D4F" d="M166,6.34v5.261l-7.091,8.472L166,28.549v5.26l-9.39-11.479v-4.51L166,6.34z"/>
			</g>
		</g>
		<g>
			<path fill="#4D4D4F" d="M145.843,33.782h-2.503V29.91c-2.123,2.584-4.743,3.872-7.862,3.872c-2.832,0-5.218-1.021-7.159-3.061
				c-1.92-2.006-2.881-4.437-2.881-7.293c0-2.823,0.981-5.235,2.942-7.241c1.963-2.004,4.352-3.007,7.17-3.007
				c3.227,0,5.824,1.369,7.79,4.106V6.316h2.503V33.782z M143.501,23.59c0-2.24-0.733-4.127-2.199-5.66
				c-1.469-1.534-3.315-2.3-5.544-2.3c-2.995,0-5.229,1.313-6.701,3.935c-0.708,1.245-1.062,2.564-1.062,3.953
				c0,1.392,0.354,2.714,1.062,3.962c0.708,1.252,1.655,2.229,2.847,2.931c1.192,0.7,2.471,1.05,3.836,1.05
				c1.379,0,2.684-0.348,3.916-1.042c1.234-0.694,2.185-1.636,2.849-2.82C143.17,26.412,143.501,25.077,143.501,23.59z"/>
		</g>
	</g>
</g>
</svg>
