<?xml version="1.0" encoding="utf-8"?>
<!-- Generator: Adobe Illustrator 15.1.0, SVG Export Plug-In . SVG Version: 6.00 Build 0)  -->
<!DOCTYPE svg PUBLIC "-//W3C//DTD SVG 1.1//EN" "http://www.w3.org/Graphics/SVG/1.1/DTD/svg11.dtd">
<svg version="1.1" id="Layer_1" xmlns="http://www.w3.org/2000/svg" xmlns:xlink="http://www.w3.org/1999/xlink" x="0px" y="0px"
	 width="20px" height="20px" viewBox="0 0 20 20" enable-background="new 0 0 20 20" xml:space="preserve">
<g>
	<path fill="#F13737" d="M8.8,19.495C9.141,19.835,9.535,20,9.994,20c0.472,0,0.861-0.171,1.184-0.505
		c0.322-0.333,0.494-0.724,0.494-1.183H8.307C8.307,18.771,8.47,19.165,8.8,19.495L8.8,19.495z"/>
	<path fill="#F13737" d="M19.936,16.766c-0.785-1.156-1.377-2.396-1.774-3.703c-0.399-1.303-0.757-3.188-1.075-5.654
		c-0.186-1.435-0.771-2.646-1.425-3.429c-0.322-0.391-0.692-0.742-1.117-1.053c-0.836-0.609-1.512-0.898-2.303-1.129
		c-0.107-0.515-0.374-0.939-0.798-1.282C11.023,0.179,10.544,0,9.994,0C9.458,0,8.977,0.176,8.56,0.515
		c-0.417,0.34-0.68,0.768-0.789,1.282C6.982,2.027,6.3,2.311,5.457,2.926C5.04,3.23,4.668,3.583,4.34,3.979
		C3.693,4.756,3.112,5.973,2.926,7.407c-0.317,2.466-0.685,4.35-1.084,5.653c-0.4,1.304-0.983,2.545-1.764,3.705
		c-0.076,0.11-0.122,0.221-0.122,0.338c0,0.102,0.022,0.188,0.077,0.287c0.12,0.209,0.295,0.316,0.538,0.316h18.871
		c0.242,0,0.416-0.109,0.537-0.316c0.043-0.099,0.065-0.197,0.065-0.295C20.044,16.975,20.004,16.87,19.936,16.766L19.936,16.766z
		 M1.667,16.492c0.658-1.129,1.155-2.368,1.501-3.692c0.344-1.327,0.658-3.081,0.964-5.238c0.266-1.876,1.117-3.054,2.181-3.759
		c0.754-0.5,1.401-0.763,2.157-0.932c0.274-0.06,0.45-0.307,0.45-0.581V2.269c0-0.581,0.494-1.052,1.073-1.052
		c0.603,0,1.075,0.471,1.075,1.052V2.29c0,0.274,0.195,0.514,0.472,0.581c0.755,0.185,1.411,0.422,2.147,0.932
		c0.371,0.257,0.696,0.541,0.976,0.865c0.567,0.661,1.041,1.677,1.206,2.894c0.294,2.159,0.613,3.9,0.964,5.227
		s0.854,2.564,1.513,3.704L1.667,16.492L1.667,16.492z"/>
</g>
</svg>
