<?xml version="1.0" encoding="utf-8"?>
<!-- Generator: Adobe Illustrator 15.1.0, SVG Export Plug-In . SVG Version: 6.00 Build 0)  -->
<!DOCTYPE svg PUBLIC "-//W3C//DTD SVG 1.1//EN" "http://www.w3.org/Graphics/SVG/1.1/DTD/svg11.dtd">
<svg version="1.1" id="Layer_1" xmlns="http://www.w3.org/2000/svg" xmlns:xlink="http://www.w3.org/1999/xlink" x="0px" y="0px"
	 width="90px" height="90px" viewBox="0 0 90 90" enable-background="new 0 0 90 90" xml:space="preserve">
<g>
	<path opacity="0.35" fill="#666666" d="M24.05,65.999c0-0.828-0.674-1.502-1.501-1.502s-1.501,0.674-1.501,1.502v0.878L20.424,67.5
		c-0.586,0.586-0.586,1.538,0,2.124c0.293,0.293,0.681,0.439,1.062,0.439c0.388,0,0.769-0.146,1.062-0.439l0.623-0.622h0.879
		c0.828,0,1.501-0.675,1.501-1.502C25.551,66.672,24.877,65.999,24.05,65.999L24.05,65.999z M24.05,65.999"/>
	<path opacity="0.35" fill="#666666" d="M33.051,65.999h-3.003c-0.828,0-1.501,0.673-1.501,1.501c0,0.827,0.674,1.502,1.501,1.502
		h3.003c0.828,0,1.494-0.675,1.494-1.502C34.545,66.672,33.879,65.999,33.051,65.999L33.051,65.999z M33.051,65.999"/>
	<path opacity="0.35" fill="#666666" d="M42.045,65.999H39.05c-0.828,0-1.501,0.673-1.501,1.501c0,0.827,0.674,1.502,1.501,1.502
		h2.996c0.828,0,1.501-0.675,1.501-1.502C43.547,66.672,42.873,65.999,42.045,65.999L42.045,65.999z M42.045,65.999"/>
	<path opacity="0.35" fill="#666666" d="M60.048,65.999h-3.003c-0.827,0-1.494,0.673-1.494,1.501c0,0.827,0.667,1.502,1.494,1.502
		h3.003c0.828,0,1.502-0.675,1.502-1.502C61.55,66.672,60.876,65.999,60.048,65.999L60.048,65.999z M60.048,65.999"/>
	<path opacity="0.35" fill="#666666" d="M51.047,65.999h-2.996c-0.827,0-1.501,0.673-1.501,1.501c0,0.827,0.674,1.502,1.501,1.502
		h2.996c0.827,0,1.501-0.675,1.501-1.502C52.548,66.672,51.874,65.999,51.047,65.999L51.047,65.999z M51.047,65.999"/>
	<path opacity="0.35" fill="#666666" d="M22.548,34.496c0.828,0,1.501-0.666,1.501-1.492V30c0-0.827-0.674-1.501-1.501-1.501
		S21.047,29.173,21.047,30v3.004C21.047,33.831,21.721,34.496,22.548,34.496L22.548,34.496z M22.548,34.496"/>
	<path opacity="0.35" fill="#666666" d="M22.548,52.5c0.828,0,1.501-0.674,1.501-1.502v-2.995c0-0.828-0.674-1.502-1.501-1.502
		s-1.501,0.674-1.501,1.502v2.995C21.047,51.826,21.721,52.5,22.548,52.5L22.548,52.5z M22.548,52.5"/>
	<path opacity="0.35" fill="#666666" d="M22.548,43.499c0.828,0,1.501-0.674,1.501-1.502v-2.995c0-0.829-0.674-1.501-1.501-1.501
		s-1.501,0.673-1.501,1.501v2.995C21.047,42.825,21.721,43.499,22.548,43.499L22.548,43.499z M22.548,43.499"/>
	<path opacity="0.35" fill="#666666" d="M22.548,61.501c0.828,0,1.501-0.673,1.501-1.501v-3.003c0-0.827-0.674-1.494-1.501-1.494
		s-1.501,0.667-1.501,1.494V60C21.047,60.828,21.721,61.501,22.548,61.501L22.548,61.501z M22.548,61.501"/>
	<path fill="#666666" d="M90.048,1.501c0-0.022-0.007-0.052-0.007-0.072c-0.008-0.073-0.022-0.146-0.036-0.22
		c-0.016-0.075-0.03-0.148-0.052-0.214c-0.008-0.02-0.008-0.05-0.022-0.072c-0.007-0.016-0.014-0.028-0.021-0.036
		c-0.015-0.03-0.037-0.061-0.052-0.089c-0.036-0.065-0.065-0.133-0.117-0.19c-0.028-0.044-0.065-0.081-0.103-0.125
		c-0.021-0.029-0.051-0.052-0.08-0.081C89.521,0.365,89.484,0.338,89.44,0.3c-0.066-0.044-0.132-0.081-0.198-0.116
		c-0.029-0.016-0.051-0.038-0.08-0.053c-0.015,0-0.021-0.015-0.037-0.015c0,0,0-0.005-0.007-0.005
		c-0.021-0.007-0.044-0.007-0.065-0.016c-0.073-0.029-0.14-0.038-0.221-0.052c-0.075-0.02-0.146-0.036-0.22-0.036
		C88.591,0.007,88.569,0,88.547,0H22.548c-0.198,0-0.396,0.043-0.579,0.116c-0.183,0.075-0.344,0.184-0.483,0.322l-20.999,21
		c0,0,0,0,0,0.007c-0.125,0.124-0.22,0.27-0.293,0.424c-0.022,0.045-0.029,0.095-0.044,0.138C0.1,22.142,0.078,22.273,0.07,22.412
		c-0.007,0.029-0.022,0.05-0.022,0.088v65.999c0,0.197,0.044,0.388,0.117,0.57c0.146,0.366,0.439,0.659,0.813,0.813
		C1.162,89.956,1.352,90,1.55,90h65.998c0.198,0,0.396-0.044,0.571-0.117c0.184-0.073,0.352-0.183,0.491-0.322l20.998-20.999
		c0.14-0.139,0.249-0.3,0.322-0.483c0.074-0.183,0.117-0.381,0.117-0.578V1.501z M87.046,65.999H69.05V23.123L87.046,5.119V65.999z
		 M66.047,86.997H4.025c-0.073-0.228-0.176-0.439-0.359-0.615c-0.176-0.184-0.388-0.285-0.615-0.359V24.001h17.996
		c0,0.828,0.674,1.502,1.501,1.502s1.501-0.675,1.501-1.502h41.997v41.998c-0.828,0-1.502,0.673-1.502,1.501
		c0,0.827,0.674,1.502,1.502,1.502V86.997z M84.929,3.004L66.926,20.999H24.05V3.004H84.929z M21.047,5.119v15.88H5.168
		L21.047,5.119z M69.05,69.002h15.879L69.05,84.88V69.002z M69.05,69.002"/>
	<path opacity="0.35" fill="#666666" d="M15.708,72.217l-2.358,2.366c-0.586,0.586-0.586,1.53,0,2.116
		c0.293,0.291,0.674,0.439,1.062,0.439c0.381,0,0.762-0.148,1.055-0.439l2.358-2.358c0.593-0.586,0.593-1.531,0-2.117
		C17.238,71.631,16.293,71.631,15.708,72.217L15.708,72.217z M15.708,72.217"/>
	<path opacity="0.35" fill="#666666" d="M8.625,79.3l-2.358,2.358c-0.586,0.585-0.586,1.537,0,2.123
		c0.293,0.294,0.681,0.439,1.062,0.439c0.388,0,0.769-0.146,1.062-0.439l2.358-2.358c0.586-0.593,0.586-1.537,0-2.123
		C10.163,78.713,9.211,78.713,8.625,79.3L8.625,79.3z M8.625,79.3"/>
</g>
<path fill-rule="evenodd" clip-rule="evenodd" fill="#4D4D4D" d="M31.802,54.483c0.037,0,0.074,0,0.111,0
	c0.548,0.594,1.119,1.164,1.712,1.712c0,0.036,0,0.073,0,0.111c-0.898,0.814-1.699,1.726-2.597,2.54
	c0.26,0.456,0.742,0.753,0.829,1.383c0.216,1.566-1.521,1.905-1.768,2.928c-0.295,1.223,0.36,3.093-0.111,4.365
	c-0.27,0.729-1.615,1.836-2.154,2.375c-0.834,0.834-1.501,1.839-2.432,2.155c-1.071,0.363-1.515-0.194-2.154-0.664
	c-0.309,0.354-0.64,0.687-0.995,0.995c0.428,0.526,0.895,1.046,0.774,1.878c-0.085,0.588-0.617,1.005-0.995,1.382
	c-0.447,0.447-0.705,0.761-1.16,1.217c-0.507,0.507-1.696,1.973-2.542,2.265c-1.32,0.454-3.073-0.244-4.364,0.11
	c-0.738,0.201-1.124,1.366-1.934,1.657c-1.034,0.371-1.834-0.295-2.32-0.719c-0.842,0.889-1.708,1.755-2.597,2.597
	c-0.603-0.593-1.257-1.138-1.768-1.823c0.897-0.815,1.698-1.727,2.596-2.542c-0.252-0.464-0.742-0.749-0.829-1.381
	c-0.216-1.569,1.521-1.904,1.768-2.928c0.304-1.261-0.356-3.077,0.111-4.365c0.287-0.788,1.749-1.915,2.321-2.485
	c1.045-1.045,2.724-3.372,4.31-1.382c0.455-0.245,0.695-0.705,1.104-0.995c-0.337-0.522-0.704-0.713-0.773-1.325
	c-0.128-1.131,0.615-1.554,1.161-2.101c0.347-0.345,0.696-0.751,1.105-1.159c0.561-0.561,1.678-1.902,2.431-2.155
	c1.292-0.433,3.14,0.226,4.365-0.109c0.669-0.185,1.079-1.351,1.934-1.659c1.069-0.383,1.775,0.278,2.321,0.719
	C30.076,56.182,30.987,55.38,31.802,54.483z M17.935,66.086c-0.291,0.409-0.751,0.648-0.995,1.104
	c1.349,1.303,2.675,2.63,3.979,3.978c0.437-0.299,0.805-0.667,1.104-1.104C20.619,68.779,19.385,67.324,17.935,66.086z"/>
<g>
	<path fill-rule="evenodd" clip-rule="evenodd" fill="#4D4D4D" d="M53.555,53.395c0.282,0,0.564,0,0.848,0
		c1.202,0.207,1.969,1.165,2.75,1.946c1.566,1.566,3.064,3.106,4.654,4.695c0.773,0.773,1.766,1.491,1.946,2.71
		c0,0.28,0,0.563,0,0.846c-0.133,1.036-0.939,1.785-1.65,2.496c-1.422,1.422-2.698,2.697-4.104,4.104
		c-0.668,0.671-1.392,1.553-2.158,1.947c-1.359,0.697-3.178,0.137-3.851-0.932c0.674-0.708,1.365-1.399,2.073-2.072
		c0.214,0.06,0.295,0.331,0.466,0.296c0.104-0.021,0.58-0.582,0.761-0.762c1.817-1.809,3.762-3.827,5.459-5.458
		c-2.218-2.324-4.488-4.595-6.813-6.812c-2.112,2.047-4.15,4.17-6.262,6.22c0.038,0.243,0.333,0.229,0.339,0.507
		c-0.738,0.646-1.344,1.422-2.116,2.031c-0.604-0.644-1.186-1.211-1.227-2.37c-0.067-1.847,1.365-2.678,2.327-3.64
		c1.168-1.167,2.409-2.45,3.554-3.596C51.479,54.624,52.217,53.648,53.555,53.395z"/>
	<path fill-rule="evenodd" clip-rule="evenodd" fill="#4D4D4D" d="M51.144,61.941c0.485-0.079,0.849,0.467,1.226,0.846
		c0.672,0.67,1.222,1.221,1.989,1.989c0.344,0.344,0.878,0.705,0.889,1.101c0.016,0.503-0.73,0.985-1.058,1.311
		c-2.459,2.461-4.626,4.626-7.108,7.109c-0.325,0.325-0.828,1.052-1.27,1.059c-0.481,0.006-0.856-0.604-1.142-0.89
		c-0.719-0.718-1.225-1.224-1.989-1.988c-0.295-0.295-0.875-0.689-0.888-1.101c-0.015-0.458,0.789-1.044,1.058-1.312
		c2.417-2.418,4.551-4.552,6.982-6.981C50.162,62.753,50.668,62.02,51.144,61.941z"/>
	<path fill-rule="evenodd" clip-rule="evenodd" fill="#4D4D4D" d="M43.485,83.86c-0.282,0-0.565,0-0.847,0
		c-1.203-0.208-1.97-1.168-2.75-1.947c-1.567-1.567-3.065-3.107-4.654-4.697c-0.773-0.772-1.767-1.489-1.946-2.708
		c0-0.281,0-0.563,0-0.847c0.132-1.152,1.094-1.897,1.861-2.665c1.56-1.559,2.931-2.93,4.485-4.484
		c0.779-0.78,1.522-1.677,2.792-1.735c1.291-0.06,2.028,0.605,2.625,1.27c-0.674,0.709-1.365,1.399-2.074,2.072
		c-0.227-0.04-0.238-0.297-0.465-0.337c-2.042,2.133-4.214,4.135-6.22,6.304c2.259,2.268,4.481,4.573,6.812,6.771
		c1.66-1.676,3.648-3.69,5.416-5.459c0.217-0.215,0.773-0.622,0.804-0.761c0.038-0.17-0.292-0.285-0.296-0.507
		c0.738-0.646,1.344-1.423,2.116-2.032c0.66,0.682,1.299,1.386,1.226,2.665c-0.09,1.626-1.437,2.454-2.367,3.386
		c-1.375,1.374-2.743,2.741-4.063,4.063C45.231,82.916,44.571,83.73,43.485,83.86z"/>
</g>
<g>
	<path fill-rule="evenodd" clip-rule="evenodd" fill="#4D4D4D" d="M51.475,48.714c0,0.076-0.063,0.139-0.14,0.139H18.972
		c-0.077,0-0.139-0.063-0.139-0.139V38.526c0-0.077,0.062-0.14,0.139-0.14h32.363c0.077,0,0.14,0.063,0.14,0.14V48.714z"/>
	<path fill-rule="evenodd" clip-rule="evenodd" fill="#4D4D4D" d="M40.247,27.146c0.077,0,0.14,0.035,0.14,0.079V45.56
		c0,0.043-0.063,0.079-0.14,0.079H30.06c-0.077,0-0.139-0.036-0.139-0.079V27.225c0-0.044,0.062-0.079,0.139-0.079H40.247z"/>
	<g>
		<path fill-rule="evenodd" clip-rule="evenodd" fill="#4D4D4D" d="M44.212,47.576c0,1.562-1.302,2.827-2.908,2.827H29.125
			c-1.605,0-2.908-1.266-2.908-2.827v-7.914c0-1.561,1.302-2.826,2.908-2.826h12.179c1.606,0,2.908,1.265,2.908,2.826V47.576z"/>
		<path fill="#FFFFFF" d="M41.304,50.567H29.125c-1.694,0-3.072-1.341-3.072-2.991v-7.914c0-1.649,1.378-2.991,3.072-2.991h12.179
			c1.695,0,3.073,1.342,3.073,2.991v7.914C44.377,49.227,42.999,50.567,41.304,50.567z M29.125,37.002
			c-1.512,0-2.742,1.192-2.742,2.66v7.914c0,1.468,1.23,2.661,2.742,2.661h12.179c1.512,0,2.742-1.193,2.742-2.661v-7.914
			c0-1.467-1.23-2.66-2.742-2.66H29.125z"/>
	</g>
</g>
</svg>
