<?xml version="1.0" encoding="utf-8"?>
<!-- Generator: Adobe Illustrator 15.1.0, SVG Export Plug-In . SVG Version: 6.00 Build 0)  -->
<!DOCTYPE svg PUBLIC "-//W3C//DTD SVG 1.1//EN" "http://www.w3.org/Graphics/SVG/1.1/DTD/svg11.dtd">
<svg version="1.1" id="Layer_1" xmlns="http://www.w3.org/2000/svg" xmlns:xlink="http://www.w3.org/1999/xlink" x="0px" y="0px"
	 width="20px" height="20px" viewBox="0 0 20 20" enable-background="new 0 0 20 20" xml:space="preserve">
<g>
	<path fill="#FFFFFF" d="M4.664,3.966c2.907-2.671,7.258-2.711,10.204-0.274l-2.335,0.09c-0.302,0.013-0.536,0.266-0.523,0.572
		c0.011,0.298,0.254,0.531,0.542,0.531h0.021l3.586-0.134c0.294-0.014,0.522-0.254,0.522-0.552V4.134l-0.133-3.602
		C16.536,0.225,16.283-0.011,15.987,0c-0.303,0.012-0.536,0.265-0.524,0.572l0.086,2.259c-1.46-1.213-3.258-1.916-5.178-2.014
		C7.989,0.696,5.702,1.524,3.938,3.149C1.509,5.383,0.48,8.781,1.252,12.016c0.06,0.254,0.281,0.421,0.525,0.421
		c0.044,0,0.085-0.004,0.129-0.017c0.289-0.073,0.469-0.371,0.398-0.665C1.628,8.913,2.53,5.926,4.664,3.966L4.664,3.966z
		 M4.664,3.966"/>
	<path fill="#FFFFFF" d="M18.748,7.985c-0.071-0.294-0.366-0.478-0.655-0.404c-0.291,0.074-0.469,0.372-0.397,0.666
		c0.678,2.843-0.227,5.828-2.361,7.789c-1.498,1.375-3.379,2.053-5.254,2.053c-1.788,0-3.574-0.616-5.014-1.833l2.366-0.216
		c0.298-0.029,0.517-0.295,0.49-0.601c-0.029-0.306-0.289-0.526-0.59-0.5l-3.575,0.328c-0.297,0.028-0.517,0.293-0.491,0.601
		l0.323,3.63C3.611,19.783,3.85,20,4.126,20c0.016,0,0.031,0,0.048-0.005c0.297-0.028,0.519-0.293,0.489-0.6l-0.192-2.211
		c1.459,1.202,3.249,1.901,5.157,1.999c0.154,0.008,0.307,0.012,0.457,0.012c2.213,0,4.32-0.826,5.976-2.344
		C18.489,14.618,19.521,11.224,18.748,7.985L18.748,7.985z M18.748,7.985"/>
</g>
</svg>
