<?xml version="1.0" encoding="utf-8"?>
<!-- Generator: Adobe Illustrator 15.1.0, SVG Export Plug-In . SVG Version: 6.00 Build 0)  -->
<!DOCTYPE svg PUBLIC "-//W3C//DTD SVG 1.1//EN" "http://www.w3.org/Graphics/SVG/1.1/DTD/svg11.dtd">
<svg version="1.1" id="Layer_1" xmlns="http://www.w3.org/2000/svg" xmlns:xlink="http://www.w3.org/1999/xlink" x="0px" y="0px"
	 width="40px" height="40px" viewBox="0 0 40 40" enable-background="new 0 0 40 40" xml:space="preserve">
<g>
	<g>
		<ellipse fill="#6D6E71" cx="20.406" cy="28.494" rx="0.551" ry="0.557"/>
		<g>
			<path fill="#6D6E71" d="M12.392,39.143c0,0,0.048,0.018,0.123,0.043l0-0.043H12.392z"/>
			<path fill="#6D6E71" d="M33.851,24.864l-0.072-0.484c-0.049-0.329-0.228-0.626-0.493-0.819l-0.208-0.151
				c-0.055-0.039-0.11-0.075-0.17-0.105c-0.181-0.094-0.389-0.145-0.597-0.145c-0.164,0-0.325,0.029-0.479,0.092l-0.314,0.125
				c-0.205,0.081-0.866,0.567-0.866,0.567l-1.704,1.513l-0.108,0.095l-2.155,1.912c-0.03,0.026-0.118,0.087-0.213,0.146
				l-0.767,0.662c-0.401,0.348-0.472,0.953-0.159,1.383l0.211,0.291c0.039,0.056,0.083,0.11,0.129,0.159
				c0.005,0.004,0.013,0.013,0.019,0.018c0.041,0.042,0.085,0.086,0.13,0.125c0.004,0.002,0.006,0.002,0.009,0.003
				c0.293,0.247,0.669,0.389,1.058,0.389c0.158,0,0.314-0.024,0.468-0.066l0.494-0.147c-0.387,0.332-0.883,0.531-1.427,0.531H14.214
				c-1.218,0-2.208-1-2.208-2.233V11.144c-0.329-0.328-0.769-0.529-1.242-0.555c-0.701-0.042-1.315,0.46-1.425,1.161
				c0.058,1.536-0.32,2.76-0.705,4.527c-0.105,0.668-0.249,1.362-0.101,2.021c0.503,2.249,0.422,4.1,0.342,5.383
				c-0.074,1.164,0.217,1.93,0.583,3.038l2.193,6.658c0.405,1.228,0.923,2.518,0.899,3.812l-0.036,1.953l0,0.043
				c0.941,0.301,7.522,2.266,13.04,0.2c0.008-0.082,0.032-0.161,0.049-0.243c0.172-0.778,0.729-1.534,1.207-2.152
				c0.966-1.26,1.717-3.323,3.064-5.285c0.642-0.936,3.236-4.66,3.236-4.66c0.169-0.201,0.312-0.426,0.418-0.671l0.181-0.419
				C33.857,25.61,33.907,25.234,33.851,24.864z"/>
		</g>
		<path fill="#6D6E71" d="M32.93,18.447c-0.285-0.413-0.755-0.658-1.251-0.658c-0.048,0-0.095,0.002-0.141,0.007
			c-0.591,0.054-1.148,0.287-1.605,0.657l-0.951,0.997l-0.871,0.904c-0.013,0.013-0.027,0.025-0.041,0.04l-1.98,2.107l-1.96,1.814
			c-0.663,0.612-0.751,1.639-0.213,2.362c0.012,0.013,0.022,0.029,0.034,0.048l0.252,0.312c0.322,0.406,0.776,0.627,1.281,0.627
			c0.2,0,0.401-0.039,0.599-0.111l1.297-1.118l0.485-0.418l2.07-1.975c0.303-0.284,0.638-0.525,0.998-0.72l2.094-2.126
			c0.264-0.27,0.423-0.627,0.444-1.008l0.019-0.354c0.02-0.345-0.077-0.691-0.274-0.976L32.93,18.447z"/>
		<path fill="#6D6E71" d="M14.498,30.47h11.341c-0.12-0.104-0.227-0.22-0.322-0.35l-0.211-0.292
			c-0.176-0.245-0.486-1.278,0.207-1.781l0.184-0.159c-0.071,0.009-0.141,0.015-0.213,0.015c-0.567,0-1.102-0.263-1.466-0.716
			l-0.249-0.314c-0.052-0.064-0.096-0.129-0.139-0.194h-9.851c-0.178,0-0.322-0.148-0.322-0.329V4.3c0-0.18,0.145-0.327,0.322-0.327
			h13.29c0.179,0,0.322,0.147,0.322,0.327v10.005l1.065-1.093v-0.529l0.316-0.288l-0.001,0.843l-0.315,0.324l-1.065,1.092
			l-0.431,0.442l-2.101,2.131c-0.716,0.725-0.735,1.881-0.04,2.63l0.275,0.296c0.366,0.395,0.881,0.622,1.415,0.627h0.02
			c0.354,0,0.701-0.101,1.004-0.283c0.006-0.003,0.011-0.007,0.017-0.01c0.04-0.025,0.083-0.051,0.121-0.079
			c0.016-0.011,0.032-0.024,0.05-0.037c0.028-0.022,0.058-0.044,0.086-0.067c0.046-0.039,0.088-0.08,0.13-0.124l0.255-0.263
			l0.265-0.283l1.005-1.07c0.083-0.088,0.171-0.169,0.263-0.248l1.495-1.563l0.771-1.093c0.316-0.445,0.429-1.008,0.307-1.545
			l-0.055-0.242c-0.105-0.476-0.382-0.894-0.774-1.18l-0.36-0.263c-0.324-0.235-0.723-0.338-1.12-0.291l-0.698,0.085
			c0,0,0.421-0.676,0.636-0.925c0.453-0.534,0.745-1.057,1.338-1.832c0.481-0.628,1.6-2.418,1.6-2.418
			c0.311-0.529,0.42-1.471,0.02-1.932c-0.416-0.478-1.03-0.727-1.657-0.669c-0.56,0.053-1.074,0.329-1.433,0.769l-1.335,2.152v-5.06
			c0-1.178-0.942-2.131-2.104-2.131H14.498c-1.164,0-2.106,0.953-2.106,2.131v26.026C12.392,29.515,13.333,30.47,14.498,30.47z
			 M20.406,27.692c0.438,0,0.793,0.359,0.793,0.802c0,0.443-0.356,0.801-0.793,0.801c-0.436,0-0.792-0.357-0.792-0.801
			C19.614,28.052,19.97,27.692,20.406,27.692z"/>
	</g>
	<g>
		<g>
			<rect x="16.985" y="8.178" fill="#6D6E71" width="1.042" height="3.27"/>
		</g>
		<g>
			<rect x="18.549" y="7.314" fill="#6D6E71" width="1.042" height="4.133"/>
		</g>
		<g>
			<rect x="20.112" y="6.425" fill="#6D6E71" width="1.044" height="5.023"/>
		</g>
		<g>
			<rect x="21.678" y="5.562" fill="#6D6E71" width="1.043" height="5.886"/>
		</g>
		<g>
			<rect x="16.302" y="11.971" fill="#6D6E71" width="7.391" height="0.214"/>
		</g>
		<g>
			<rect x="16.233" y="5.402" fill="#6D6E71" width="0.213" height="6.783"/>
		</g>
		<g>
			<polygon fill="#6D6E71" points="24.318,12.078 23.926,11.878 23.536,11.68 23.536,12.078 23.536,12.476 23.926,12.278 			"/>
		</g>
		<g>
			<polygon fill="#6D6E71" points="16.339,4.875 16.535,5.27 16.731,5.666 16.339,5.666 15.945,5.666 16.142,5.27 			"/>
		</g>
	</g>
	<g>
		<g>
			<path fill="#6D6E71" d="M19.148,16.049v2.102c-0.896,0-1.623,0.735-1.623,1.643c0,0.907,0.727,1.642,1.623,1.642
				c0.341,0,0.658-0.105,0.919-0.287l1.176,1.731c-0.597,0.414-1.318,0.658-2.095,0.658c-2.042,0-3.698-1.676-3.698-3.745
				C15.45,17.726,17.105,16.049,19.148,16.049z"/>
		</g>
		<g>
			<path fill="#6D6E71" d="M19.51,17.233V15.13c0.907,0,1.738,0.331,2.38,0.881l-1.334,1.608
				C20.274,17.378,19.909,17.233,19.51,17.233z"/>
		</g>
		<g>
			<path fill="#6D6E71" d="M20.193,18.536l1.335-1.607c0.246,0.208,0.463,0.449,0.647,0.713c0.285,0.414,0.492,0.885,0.594,1.396
				c0.05,0.244,0.076,0.496,0.076,0.754c0,1.279-0.634,2.412-1.603,3.086l-1.176-1.731c0.425-0.298,0.703-0.792,0.703-1.355
				C20.77,19.289,20.545,18.837,20.193,18.536z"/>
		</g>
		<g>
			<path fill="#6D6E71" d="M17.558,19.463l-2.032-0.424c-0.051,0.244-0.076,0.496-0.076,0.754c0,1.279,0.634,2.412,1.602,3.086
				c0.597,0.414,1.318,0.658,2.096,0.658c0.777,0,1.498-0.244,2.095-0.658l-1.176-1.731c-0.261,0.182-0.578,0.287-0.919,0.287
				c-0.342,0-0.658-0.105-0.92-0.287c-0.425-0.298-0.703-0.792-0.703-1.355C17.525,19.68,17.538,19.569,17.558,19.463z"/>
		</g>
	</g>
</g>
</svg>
