<?xml version="1.0" encoding="utf-8"?>
<!-- Generator: Adobe Illustrator 15.1.0, SVG Export Plug-In . SVG Version: 6.00 Build 0)  -->
<!DOCTYPE svg PUBLIC "-//W3C//DTD SVG 1.1//EN" "http://www.w3.org/Graphics/SVG/1.1/DTD/svg11.dtd">
<svg version="1.1" id="Layer_1" xmlns="http://www.w3.org/2000/svg" xmlns:xlink="http://www.w3.org/1999/xlink" x="0px" y="0px"
	 width="30px" height="30px" viewBox="0 0 30 30" enable-background="new 0 0 30 30" xml:space="preserve">
<g>
	<g>
		<path fill="#F26739" d="M5.597,21.834C2.498,21.834,0,24.369,0,27.511c0,0.41,0.049,0.795,0.117,1.187
			C1.666,29.518,3.546,30,5.591,30c2.047,0,3.934-0.482,5.476-1.303c0.074-0.385,0.118-0.77,0.118-1.187
			C11.221,24.394,8.692,21.834,5.597,21.834L5.597,21.834z M5.597,21.834"/>
		<path fill="#F26739" d="M8.55,17.531c0,1.653-1.323,2.993-2.954,2.993c-1.629,0-2.951-1.34-2.951-2.993s1.322-2.993,2.951-2.993
			C7.228,14.538,8.55,15.878,8.55,17.531L8.55,17.531z M8.55,17.531"/>
		<path fill="#F26739" d="M24.413,21.834c-3.1,0-5.597,2.535-5.597,5.677c0,0.41,0.048,0.795,0.115,1.187
			C20.48,29.518,22.359,30,24.406,30s3.934-0.482,5.475-1.303c0.074-0.385,0.118-0.77,0.118-1.187
			C30.01,24.394,27.513,21.834,24.413,21.834L24.413,21.834z M24.413,21.834"/>
		<path fill="#F26739" d="M27.365,17.531c0,1.653-1.322,2.993-2.952,2.993s-2.952-1.34-2.952-2.993s1.322-2.993,2.952-2.993
			S27.365,15.878,27.365,17.531L27.365,17.531z M27.365,17.531"/>
		<path fill="#F26739" d="M15.007,15.482c2.045,0,3.932-0.483,5.474-1.304c0.074-0.386,0.115-0.77,0.115-1.187
			c0-3.142-2.497-5.675-5.596-5.675c-3.1,0-5.599,2.533-5.599,5.675c0,0.411,0.05,0.795,0.117,1.187
			C11.074,14.999,12.959,15.482,15.007,15.482L15.007,15.482z M15.007,15.482"/>
		<path fill="#F26739" d="M17.958,2.993c0,1.654-1.322,2.995-2.951,2.995c-1.631,0-2.954-1.341-2.954-2.995
			C12.053,1.341,13.375,0,15.007,0C16.636,0,17.958,1.341,17.958,2.993L17.958,2.993z M17.958,2.993"/>
		<path fill="#F26739" d="M15.813,20.313v-3.459c0-0.342-0.274-0.633-0.619-0.628c-0.324,0.013-0.575,0.273-0.575,0.604v3.477
			l-2.737,2.75c-0.233,0.236-0.239,0.616-0.012,0.859c0.238,0.248,0.642,0.242,0.881-0.007l2.439-2.471l2.474,2.484
			c0.239,0.235,0.618,0.235,0.855,0c0.239-0.243,0.239-0.635,0-0.87L15.813,20.313z M15.813,20.313"/>
	</g>
</g>
</svg>
