<?xml version="1.0" encoding="utf-8"?>
<!-- Generator: Adobe Illustrator 15.1.0, SVG Export Plug-In . SVG Version: 6.00 Build 0)  -->
<!DOCTYPE svg PUBLIC "-//W3C//DTD SVG 1.1//EN" "http://www.w3.org/Graphics/SVG/1.1/DTD/svg11.dtd">
<svg version="1.1" id="Layer_1" xmlns="http://www.w3.org/2000/svg" xmlns:xlink="http://www.w3.org/1999/xlink" x="0px" y="0px"
	 width="30px" height="30px" viewBox="0 0 30 30" enable-background="new 0 0 30 30" xml:space="preserve">
<g>
	<g>
		<path fill="#F26A38" d="M23.132,10.619c0,0.709-0.58,1.286-1.293,1.286c-0.709,0-1.291-0.577-1.291-1.286
			c0-0.712,0.582-1.29,1.291-1.29C22.552,9.329,23.132,9.906,23.132,10.619L23.132,10.619z M12.248,6.884
			c-1.18,0-2.141,0.96-2.141,2.138c0,1.179,0.961,2.137,2.141,2.137s2.141-0.958,2.141-2.137
			C14.388,7.844,13.427,6.884,12.248,6.884L12.248,6.884z M26.774,10.986c-0.084,2.031-2.887,5.725-2.887,5.725
			c-2.236,3.209-1.139,5.686-1.139,5.686c-4.514,1.015-8.213,7.592-8.213,7.592c-0.163-0.976-2.331-5.088-2.331-5.088
			c-0.909-1.139-2.429-0.737-3.254-0.638c-2.355,0.291-2.942-0.404-2.942-0.404c-0.514-0.312-0.271-1.622-0.271-1.622
			c0.191-0.681-0.119-1.012-0.311-1.274c-0.515-0.725-0.216-1.053-0.216-1.053c0.16-0.209,0.052-0.316,0.052-0.316
			c-0.569-0.188-0.61-0.498-0.61-0.498l0.017-1.047c0.092-0.713-0.23-0.757-0.23-0.757c-1.304-0.023-1.276-0.866-1.276-0.866
			c-0.052-0.46,1.52-3.223,1.52-3.223c0.729-1.405-0.312-2.249-0.384-2.974c-0.322-3.356,0.814-5.41,2.356-7.035
			c2.547-2.692,5.824-3.197,7.969-3.181c5.489,0.04,7.709,1.78,9.393,3.655C27.517,7.561,26.774,10.986,26.774,10.986L26.774,10.986
			z M17.706,7.797h-1.041c-0.1-0.363-0.243-0.71-0.429-1.032l0.739-0.736L15.242,4.3l-0.733,0.733
			c-0.323-0.183-0.67-0.328-1.037-0.426v-1.04h-2.446v1.04c-0.367,0.099-0.715,0.247-1.037,0.426L9.254,4.3L7.52,6.028l0.737,0.736
			C8.075,7.086,7.93,7.43,7.831,7.797h-1.04v2.448h1.04c0.1,0.363,0.244,0.708,0.427,1.032L7.52,12.012l1.734,1.728l0.733-0.733
			c0.322,0.184,0.67,0.322,1.037,0.426v1.039h2.446v-1.039c0.367-0.104,0.714-0.246,1.037-0.426l0.733,0.733l1.734-1.728
			l-0.739-0.736c0.186-0.323,0.329-0.669,0.429-1.032h1.041V7.797z M25.259,9.802h-0.625C24.573,9.6,24.495,9.405,24.39,9.221
			l0.443-0.441l-1.152-1.15l-0.441,0.441c-0.184-0.103-0.379-0.183-0.582-0.243V7.203h-1.635v0.625
			c-0.203,0.06-0.395,0.14-0.578,0.243l-0.443-0.441l-1.156,1.15l0.443,0.441c-0.1,0.184-0.184,0.378-0.238,0.581h-0.627v1.629
			h0.627c0.059,0.207,0.139,0.398,0.238,0.581l-0.443,0.442l1.156,1.155l0.443-0.442c0.184,0.1,0.375,0.179,0.578,0.239v0.625h1.635
			v-0.625c0.203-0.06,0.398-0.14,0.582-0.239l0.441,0.442l1.152-1.155l-0.443-0.442c0.105-0.183,0.184-0.374,0.244-0.581h0.625
			V9.802z M25.259,9.802"/>
	</g>
</g>
</svg>
