<?xml version="1.0" encoding="utf-8"?>
<!-- Generator: Adobe Illustrator 15.1.0, SVG Export Plug-In . SVG Version: 6.00 Build 0)  -->
<!DOCTYPE svg PUBLIC "-//W3C//DTD SVG 1.1//EN" "http://www.w3.org/Graphics/SVG/1.1/DTD/svg11.dtd">
<svg version="1.1" id="Layer_1" xmlns="http://www.w3.org/2000/svg" xmlns:xlink="http://www.w3.org/1999/xlink" x="0px" y="0px"
	 width="30px" height="30px" viewBox="0 0 30 30" enable-background="new 0 0 30 30" xml:space="preserve">
<g>
	<g>
		<g>
			<path fill="#F26739" d="M25.404,8.274c0.915,0,1.663-0.748,1.663-1.661c0.001-0.926-0.748-1.667-1.663-1.667
				c-0.925,0-1.664,0.75-1.664,1.666C23.74,7.526,24.479,8.274,25.404,8.274L25.404,8.274z M25.516,14.006h4.512v-1.664h-3.347
				l-1.85-3.08C24.554,8.8,24.056,8.495,23.48,8.495c-0.156,0-0.313,0.029-0.452,0.067l-5.021,1.561v4.81h1.663v-3.393l1.952-0.611
				l-3.615,14.172h1.663l2.654-7.498l2.154,2.875v4.623h1.663v-5.925l-2.302-4.199l0.675-2.652L25.516,14.006z M25.516,14.006"/>
		</g>
		<path fill="#F26739" d="M11.062,8.595c-0.574,0-1.063,0.214-1.482,0.618c-0.412,0.437-0.626,0.932-0.626,1.49v5.133
			c0,0.191,0.061,0.367,0.214,0.504c0.137,0.138,0.305,0.199,0.504,0.199c0.221,0,0.388-0.062,0.526-0.199
			c0.122-0.137,0.184-0.313,0.184-0.504v-4.591h0.374v12.702c0,0.244,0.106,0.474,0.306,0.648c0.19,0.191,0.418,0.276,0.671,0.276
			c0.276,0,0.504-0.085,0.68-0.276c0.199-0.175,0.283-0.404,0.283-0.648v-7.362h0.412v7.362c0,0.244,0.101,0.474,0.283,0.648
			c0.176,0.191,0.413,0.276,0.704,0.276c0.244,0,0.458-0.085,0.648-0.276c0.176-0.175,0.268-0.404,0.268-0.648V11.245h0.382v4.591
			c0,0.191,0.061,0.367,0.19,0.504c0.153,0.138,0.329,0.199,0.527,0.199c0.222,0,0.39-0.062,0.52-0.199
			c0.115-0.137,0.19-0.313,0.19-0.504v-5.133c0-0.558-0.198-1.053-0.618-1.481c-0.404-0.413-0.894-0.627-1.489-0.627H11.062z"/>
		<path fill="#F26739" d="M12.894,8.176c0.451,0,0.849-0.153,1.161-0.458c0.321-0.314,0.481-0.703,0.481-1.177
			c0-0.45-0.16-0.833-0.481-1.153c-0.32-0.329-0.71-0.489-1.161-0.489c-0.467,0-0.863,0.16-1.161,0.489
			c-0.32,0.32-0.466,0.703-0.466,1.153c0,0.474,0.146,0.863,0.466,1.177C12.031,8.023,12.427,8.176,12.894,8.176L12.894,8.176z"/>
		<path fill="#F26739" d="M2.081,8.734c-0.572,0-1.062,0.213-1.48,0.618c-0.414,0.435-0.628,0.932-0.628,1.49v5.132
			c0,0.19,0.062,0.365,0.214,0.504c0.137,0.138,0.306,0.198,0.504,0.198c0.221,0,0.389-0.061,0.526-0.198
			c0.122-0.139,0.183-0.313,0.183-0.504v-4.591h0.375v12.703c0,0.244,0.107,0.473,0.305,0.648c0.191,0.191,0.421,0.275,0.673,0.275
			c0.275,0,0.504-0.084,0.68-0.275c0.199-0.176,0.282-0.404,0.282-0.648v-7.363h0.412v7.363c0,0.244,0.1,0.473,0.283,0.648
			c0.176,0.191,0.412,0.275,0.703,0.275c0.244,0,0.458-0.084,0.648-0.275c0.177-0.176,0.268-0.404,0.268-0.648V11.383h0.382v4.591
			c0,0.19,0.061,0.365,0.191,0.504c0.151,0.138,0.327,0.198,0.526,0.198c0.222,0,0.389-0.061,0.52-0.198
			c0.114-0.139,0.19-0.313,0.19-0.504v-5.132c0-0.558-0.199-1.055-0.618-1.482c-0.406-0.412-0.895-0.625-1.49-0.625H2.081z"/>
		<path fill="#F26739" d="M3.915,8.314c0.45,0,0.848-0.153,1.16-0.458C5.396,7.542,5.556,7.153,5.556,6.68
			c0-0.451-0.16-0.833-0.481-1.154c-0.32-0.329-0.71-0.489-1.16-0.489c-0.466,0-0.863,0.16-1.161,0.489
			C2.432,5.847,2.288,6.229,2.288,6.68c0,0.473,0.144,0.862,0.465,1.176C3.052,8.161,3.448,8.314,3.915,8.314L3.915,8.314z"/>
	</g>
</g>
</svg>
