<?xml version="1.0" encoding="utf-8"?>
<!-- Generator: Adobe Illustrator 15.1.0, SVG Export Plug-In . SVG Version: 6.00 Build 0)  -->
<!DOCTYPE svg PUBLIC "-//W3C//DTD SVG 1.1//EN" "http://www.w3.org/Graphics/SVG/1.1/DTD/svg11.dtd">
<svg version="1.1" id="Layer_1" xmlns="http://www.w3.org/2000/svg" xmlns:xlink="http://www.w3.org/1999/xlink" x="0px" y="0px"
	 width="30px" height="30px" viewBox="0 0 30 30" enable-background="new 0 0 30 30" xml:space="preserve">
<g>
	<path fill-rule="evenodd" clip-rule="evenodd" fill="#F26A38" d="M11.883-0.032c2.083,0,4.166,0,6.25,0
		c0.498,0.072,0.886,0.343,1.071,0.856c0.147,0.41,0.092,1.196,0.092,1.847c0,1.215,0,2.599,0,3.824c0,0.613,0.089,1.36-0.062,1.846
		c-0.366,1.183-1.724,0.795-3.124,0.857c-0.071,1.462-0.01,3.066-0.029,4.583c2.334,0.061,5.057,0.031,7.624,0.031
		c0.708,0,1.894-0.144,2.451,0.101c0.927,0.406,0.644,2.286,0.644,3.658c0,1.12,0,2.132,0,3.166c1.418,0.001,3.07-0.252,3.216,1.121
		c0,2.329,0,4.658,0,6.987c-0.161,1.203-1.147,1.12-2.481,1.12c-1.256,0-2.3,0-3.522,0c-0.571,0-1.257,0.101-1.715-0.031
		c-0.959-0.28-0.858-1.258-0.858-2.604c0-1.48,0-2.424,0-3.957c0-1.232-0.067-2.206,0.767-2.537
		c0.638-0.255,1.504-0.016,2.419-0.099c0.072-1.473,0.012-3.089,0.031-4.615c-2.857,0-5.717,0-8.574,0c0,1.538,0,3.076,0,4.615
		c1.424,0.027,2.895-0.283,3.185,0.988c0.124,0.549,0.03,1.248,0.03,1.878c0,1.266,0,2.47,0,3.824c0,1.309,0.065,2.237-0.857,2.507
		c-0.484,0.142-1.189,0.031-1.716,0.031c-1.068,0-2.305,0-3.461,0c-1.25,0-2.114,0.111-2.449-0.789
		c-0.157-0.425-0.092-1.229-0.092-1.847c0-1.258,0-2.688,0-3.89c0-1.188-0.087-2.131,0.643-2.539
		c0.631-0.352,1.586-0.073,2.543-0.164c0.07-1.462,0.01-3.066,0.03-4.584c-2.798-0.075-5.728-0.011-8.576-0.031
		c0,1.549,0,3.099,0,4.648c1.284,0.129,2.706-0.3,3.125,0.823c0.167,0.452,0.091,1.232,0.091,1.879c0,1.305,0,2.529,0,3.923
		c0,0.634,0.066,1.455-0.091,1.846c-0.178,0.437-0.635,0.741-1.073,0.792c-2.083,0-4.165,0-6.247,0
		C0.514,29.938,0.154,29.538,0,28.911c0-2.331,0-4.658,0-6.987c0.111-1.41,1.808-1.11,3.216-1.121c0-1.547,0-3.174,0-4.748
		c0-0.488-0.08-1.123,0.062-1.517c0.347-0.968,1.889-0.727,3.125-0.727c2.518,0,5.176,0,7.534,0c0-1.537,0-3.076,0-4.614
		c-1.331-0.056-2.72,0.325-3.124-0.823c-0.163-0.46-0.092-1.227-0.092-1.847c0-1.355,0-2.545,0-3.89
		c0-0.655-0.065-1.492,0.092-1.879C10.988,0.324,11.414,0.036,11.883-0.032z M12.864,2.375c0,1.505,0,3.011,0,4.517
		c1.43,0,2.858,0,4.288,0c0-1.54,0-3.078,0-4.616c-1.418,0-2.838,0-4.256,0C12.859,2.281,12.862,2.328,12.864,2.375z M12.864,23.144
		c0,1.505,0,3.01,0,4.516c1.43,0,2.858,0,4.288,0c0-1.54,0-3.077,0-4.616c-1.418,0-2.838,0-4.256,0
		C12.859,23.05,12.862,23.096,12.864,23.144z M23.583,23.144c0,1.505,0,3.01,0,4.516c1.43,0,2.859,0,4.289,0c0-1.54,0-3.077,0-4.616
		c-1.42,0-2.839,0-4.258,0C23.578,23.05,23.581,23.096,23.583,23.144z M2.144,23.207c0,1.506,0,3.013,0,4.518
		c1.43,0,2.859,0,4.288,0c0-1.539,0-3.076,0-4.616c-1.419,0-2.838,0-4.257,0C2.139,23.114,2.142,23.161,2.144,23.207z"/>
	<path fill-rule="evenodd" clip-rule="evenodd" fill="#F26A38" d="M0.68,28.911c0.152,0.627,0.508,1.027,1.15,1.121
		c-0.384,0-0.768,0-1.15,0C0.68,29.659,0.68,29.285,0.68,28.911z"/>
</g>
</svg>
