<?xml version="1.0" encoding="utf-8"?>
<!-- Generator: Adobe Illustrator 15.1.0, SVG Export Plug-In . SVG Version: 6.00 Build 0)  -->
<!DOCTYPE svg PUBLIC "-//W3C//DTD SVG 1.1//EN" "http://www.w3.org/Graphics/SVG/1.1/DTD/svg11.dtd">
<svg version="1.1" id="Layer_1" xmlns="http://www.w3.org/2000/svg" xmlns:xlink="http://www.w3.org/1999/xlink" x="0px" y="0px"
	 width="30px" height="30px" viewBox="0 0 30 30" enable-background="new 0 0 30 30" xml:space="preserve">
<g>
	<path fill="#F26838" d="M220.15,24.498c-2.345,0.147-6.196-1.683-9.813-4.658c-2.336-1.923-4.267-4.07-5.438-6.043
		c-1.206-2.033-1.465-3.668-0.728-4.599c0.363-0.457,0.935-0.714,1.697-0.761c2.344-0.145,6.198,1.688,9.813,4.663
		c2.337,1.922,4.266,4.064,5.438,6.042c1.205,2.032,1.464,3.67,0.725,4.6C221.483,24.196,220.912,24.454,220.15,24.498z"/>
	<path fill="#F26838" d="M216.438,12.645c-3.991,0.247-7.358-1.984-7.664-5.081c-0.32-3.254,2.828-6.293,7.021-6.772
		c4.197-0.463,7.863,1.808,8.183,5.038c0.317,3.255-2.831,6.292-7.021,6.771C216.783,12.618,216.611,12.634,216.438,12.645z"/>
	<path fill="#F26838" d="M203.168,30.625c-2.9,0-6.033-2.455-7.798-6.112c-2.342-4.853-1.608-10.281,1.638-12.101
		c0.709-0.396,1.494-0.598,2.333-0.598c2.899,0,6.033,2.457,7.798,6.114c2.342,4.857,1.607,10.283-1.639,12.1
		C204.789,30.425,204.004,30.625,203.168,30.625z"/>
	<path fill="#FFFFFF" d="M201.389,16.119c0,1.092-0.875,1.982-1.955,1.982s-1.955-0.891-1.955-1.982s0.875-1.98,1.955-1.98
		S201.389,15.027,201.389,16.119z"/>
	<path fill="#FFFFFF" d="M210.225,12.662c0,1.162-0.875,2.107-1.955,2.107c-1.079,0-1.955-0.945-1.955-2.107
		c0-1.16,0.876-2.105,1.955-2.105C209.35,10.557,210.225,11.502,210.225,12.662z"/>
	<path fill="#FFFFFF" d="M214.135,16.356c0,1.163-0.876,2.108-1.955,2.108c-1.08,0-1.956-0.945-1.956-2.108
		c0-1.16,0.876-2.104,1.956-2.104C213.259,14.252,214.135,15.196,214.135,16.356z"/>
	<path fill="#FFFFFF" d="M214.85,6.124c0,1.119-0.874,2.03-1.955,2.03c-1.079,0-1.955-0.911-1.955-2.03
		c0-1.117,0.876-2.025,1.955-2.025C213.976,4.099,214.85,5.007,214.85,6.124z"/>
	<path fill="#FFFFFF" d="M218.761,4.096c0,1.12-0.876,2.03-1.956,2.03s-1.955-0.91-1.955-2.03c0-1.117,0.875-2.026,1.955-2.026
		S218.761,2.979,218.761,4.096z"/>
	<path fill="#FFFFFF" d="M217.563,9.294c0,1.119-0.875,2.03-1.955,2.03c-1.078,0-1.954-0.911-1.954-2.03
		c0-1.116,0.876-2.025,1.954-2.025C216.688,7.269,217.563,8.178,217.563,9.294z"/>
	<path fill="#FFFFFF" d="M221.473,7.651c0,1.121-0.875,2.031-1.955,2.031c-1.079,0-1.955-0.91-1.955-2.031
		c0-1.116,0.876-2.025,1.955-2.025C220.598,5.625,221.473,6.535,221.473,7.651z"/>
	<path fill="#FFFFFF" d="M218.571,18.989c0,1.162-0.876,2.109-1.956,2.109s-1.955-0.947-1.955-2.109c0-1.16,0.875-2.104,1.955-2.104
		S218.571,17.829,218.571,18.989z"/>
	<path fill="#FFFFFF" d="M199.725,20.212c0,1.094-0.874,1.984-1.955,1.984c-1.078,0-1.954-0.891-1.954-1.984
		c0-1.092,0.876-1.981,1.954-1.981C198.851,18.23,199.725,19.12,199.725,20.212z"/>
	<ellipse fill="#FFFFFF" cx="200.058" cy="24.299" rx="1.955" ry="1.981"/>
	<path fill="#FFFFFF" d="M204.135,20.174c0,1.093-0.875,1.982-1.955,1.982s-1.955-0.89-1.955-1.982c0-1.092,0.875-1.981,1.955-1.981
		S204.135,19.082,204.135,20.174z"/>
	<path fill="#FFFFFF" d="M207.053,23.201c0,1.093-0.875,1.983-1.955,1.983c-1.079,0-1.955-0.891-1.955-1.983
		c0-1.091,0.876-1.981,1.955-1.981C206.178,21.22,207.053,22.11,207.053,23.201z"/>
	<path fill="#FFFFFF" d="M205.345,27.177c0,1.093-0.876,1.983-1.955,1.983s-1.955-0.891-1.955-1.983
		c0-1.091,0.876-1.981,1.955-1.981S205.345,26.086,205.345,27.177z"/>
</g>
<g>
	<path fill="#F26838" d="M22.438,11.967c-3.991,0.247-7.358-1.984-7.664-5.081c-0.32-3.254,2.828-6.293,7.021-6.772
		c4.197-0.463,7.863,1.808,8.183,5.038c0.317,3.255-2.831,6.292-7.021,6.771C22.783,11.94,22.611,11.956,22.438,11.967z"/>
	<path fill="#F26838" d="M9.168,29.947c-2.9,0-6.033-2.455-7.798-6.112c-2.342-4.853-1.608-10.281,1.638-12.101
		c0.709-0.396,1.494-0.598,2.333-0.598c2.899,0,6.033,2.457,7.798,6.114c2.342,4.857,1.607,10.283-1.639,12.1
		C10.789,29.747,10.004,29.947,9.168,29.947z"/>
	<path fill="#FFFFFF" d="M7.389,15.441c0,1.092-0.875,1.982-1.955,1.982s-1.955-0.891-1.955-1.982s0.875-1.98,1.955-1.98
		S7.389,14.35,7.389,15.441z"/>
	<path fill="#FFFFFF" d="M20.85,5.446c0,1.119-0.874,2.03-1.955,2.03c-1.079,0-1.955-0.911-1.955-2.03
		c0-1.117,0.876-2.025,1.955-2.025C19.976,3.421,20.85,4.33,20.85,5.446z"/>
	<path fill="#FFFFFF" d="M24.761,3.418c0,1.12-0.876,2.03-1.956,2.03s-1.955-0.91-1.955-2.03c0-1.117,0.875-2.026,1.955-2.026
		S24.761,2.302,24.761,3.418z"/>
	<path fill="#FFFFFF" d="M23.563,8.616c0,1.119-0.875,2.03-1.955,2.03c-1.078,0-1.954-0.911-1.954-2.03
		c0-1.116,0.876-2.025,1.954-2.025C22.688,6.591,23.563,7.5,23.563,8.616z"/>
	<path fill="#FFFFFF" d="M27.473,6.973c0,1.121-0.875,2.031-1.955,2.031c-1.079,0-1.955-0.91-1.955-2.031
		c0-1.116,0.876-2.025,1.955-2.025C26.598,4.948,27.473,5.857,27.473,6.973z"/>
	<path fill="#FFFFFF" d="M5.725,19.534c0,1.094-0.874,1.984-1.955,1.984c-1.078,0-1.954-0.891-1.954-1.984
		c0-1.092,0.876-1.981,1.954-1.981C4.851,17.553,5.725,18.442,5.725,19.534z"/>
	<ellipse fill="#FFFFFF" cx="6.058" cy="23.621" rx="1.955" ry="1.981"/>
	<path fill="#FFFFFF" d="M10.135,19.496c0,1.093-0.875,1.982-1.955,1.982s-1.955-0.89-1.955-1.982c0-1.092,0.875-1.981,1.955-1.981
		S10.135,18.404,10.135,19.496z"/>
	<path fill="#FFFFFF" d="M13.053,22.523c0,1.093-0.875,1.983-1.955,1.983c-1.079,0-1.955-0.891-1.955-1.983
		c0-1.091,0.876-1.981,1.955-1.981C12.178,20.542,13.053,21.433,13.053,22.523z"/>
	<path fill="#FFFFFF" d="M11.345,26.499c0,1.093-0.876,1.983-1.955,1.983s-1.955-0.891-1.955-1.983c0-1.091,0.876-1.981,1.955-1.981
		S11.345,25.408,11.345,26.499z"/>
	<path fill="#F26838" stroke="#FFFFFF" stroke-width="0.25" stroke-miterlimit="10" d="M26.15,23.82
		c-2.345,0.147-6.196-1.683-9.813-4.658c-2.336-1.923-4.267-4.07-5.438-6.043c-1.206-2.033-1.465-3.668-0.728-4.599
		c0.363-0.457,0.935-0.714,1.697-0.761c2.344-0.145,6.198,1.688,9.813,4.663c2.337,1.922,4.266,4.064,5.438,6.042
		c1.205,2.032,1.464,3.67,0.725,4.6C27.483,23.519,26.912,23.776,26.15,23.82z"/>
	<path fill="#FFFFFF" d="M16.225,11.984c0,1.162-0.875,2.107-1.955,2.107c-1.079,0-1.955-0.945-1.955-2.107
		c0-1.16,0.876-2.105,1.955-2.105C15.35,9.879,16.225,10.824,16.225,11.984z"/>
	<path fill="#FFFFFF" d="M20.135,15.679c0,1.163-0.876,2.108-1.955,2.108c-1.08,0-1.956-0.945-1.956-2.108
		c0-1.16,0.876-2.104,1.956-2.104C19.259,13.574,20.135,14.519,20.135,15.679z"/>
	<path fill="#FFFFFF" d="M24.571,18.312c0,1.162-0.876,2.109-1.956,2.109s-1.955-0.947-1.955-2.109c0-1.16,0.875-2.104,1.955-2.104
		S24.571,17.151,24.571,18.312z"/>
</g>
</svg>
