<?xml version="1.0" encoding="utf-8"?>
<!-- Generator: Adobe Illustrator 15.1.0, SVG Export Plug-In . SVG Version: 6.00 Build 0)  -->
<!DOCTYPE svg PUBLIC "-//W3C//DTD SVG 1.1//EN" "http://www.w3.org/Graphics/SVG/1.1/DTD/svg11.dtd">
<svg version="1.1" id="Layer_1" xmlns="http://www.w3.org/2000/svg" xmlns:xlink="http://www.w3.org/1999/xlink" x="0px" y="0px"
	 width="30px" height="30px" viewBox="0 0 30 30" enable-background="new 0 0 30 30" xml:space="preserve">
<g>
	<g>
		<path fill="#F26739" d="M29.905,13.335c-0.047-0.421-0.537-0.738-0.964-0.738c-1.373,0-2.594-0.807-3.104-2.058
			c-0.522-1.276-0.187-2.768,0.84-3.709c0.319-0.293,0.359-0.787,0.089-1.13C26.063,4.806,25.264,4,24.39,3.299
			c-0.34-0.273-0.843-0.235-1.14,0.095c-0.896,0.988-2.501,1.357-3.741,0.838c-1.291-0.543-2.106-1.851-2.026-3.257
			c0.028-0.44-0.295-0.824-0.736-0.875c-1.122-0.129-2.251-0.134-3.374-0.008c-0.435,0.047-0.756,0.423-0.745,0.858
			c0.05,1.391-0.774,2.675-2.052,3.201c-1.226,0.5-2.821,0.136-3.715-0.846C6.567,2.98,6.074,2.941,5.73,3.209
			C4.832,3.915,4.014,4.723,3.303,5.608c-0.276,0.344-0.235,0.845,0.091,1.14c1.043,0.946,1.379,2.451,0.837,3.744
			c-0.518,1.232-1.798,2.027-3.263,2.027c-0.477-0.015-0.815,0.304-0.868,0.736c-0.132,1.127-0.134,2.275-0.006,3.412
			c0.047,0.422,0.553,0.736,0.984,0.736c1.306-0.032,2.559,0.776,3.086,2.056c0.524,1.279,0.187,2.77-0.84,3.711
			c-0.32,0.294-0.361,0.786-0.09,1.13c0.697,0.887,1.496,1.695,2.372,2.4c0.343,0.277,0.844,0.237,1.143-0.091
			c0.897-0.991,2.504-1.359,3.739-0.842c1.294,0.542,2.11,1.851,2.029,3.257c-0.025,0.441,0.297,0.826,0.736,0.876
			c0.574,0.066,1.148,0.1,1.729,0.1c0.549,0,1.097-0.03,1.647-0.088c0.434-0.05,0.755-0.426,0.741-0.862
			c-0.051-1.39,0.776-2.675,2.053-3.197c1.234-0.506,2.822-0.137,3.716,0.844c0.297,0.323,0.786,0.362,1.131,0.096
			c0.896-0.704,1.713-1.511,2.428-2.399c0.276-0.344,0.237-0.844-0.091-1.141c-1.043-0.944-1.382-2.449-0.84-3.741
			c0.509-1.216,1.743-2.034,3.069-2.034l0.186,0.005c0.43,0.034,0.824-0.296,0.878-0.736C30.031,15.619,30.033,14.472,29.905,13.335
			L29.905,13.335z M15.001,23.648c-4.776,0-8.648-3.871-8.648-8.647c0-4.777,3.873-8.647,8.648-8.647
			c4.776,0,8.647,3.871,8.647,8.647c0,1.623-0.447,3.138-1.223,4.436l-3.788-3.789c0.275-0.646,0.419-1.347,0.419-2.07
			c0-1.415-0.552-2.746-1.553-3.75c-1.001-1-2.333-1.552-3.748-1.552c-0.472,0-0.945,0.063-1.397,0.188
			c-0.2,0.054-0.362,0.218-0.417,0.418c-0.052,0.204,0.007,0.414,0.167,0.573c0,0,1.87,1.885,2.495,2.508
			c0.067,0.067,0.066,0.223,0.058,0.281l-0.007,0.04c-0.063,0.688-0.184,1.513-0.285,1.83c-0.013,0.014-0.025,0.025-0.039,0.039
			c-0.015,0.015-0.029,0.029-0.042,0.043c-0.321,0.104-1.158,0.227-1.857,0.288l0.001-0.004l-0.033,0.01
			c-0.005,0-0.016,0.001-0.029,0.001c-0.076,0-0.187-0.022-0.287-0.123c-0.652-0.652-2.448-2.436-2.448-2.436
			c-0.162-0.161-0.326-0.193-0.436-0.193c-0.258,0-0.487,0.186-0.56,0.45c-0.495,1.833,0.03,3.799,1.368,5.138
			c1.002,1.002,2.333,1.554,3.75,1.554c0.724,0,1.423-0.146,2.069-0.42l3.83,3.828C18.311,23.148,16.713,23.648,15.001,23.648
			L15.001,23.648z M15.001,23.648"/>
	</g>
</g>
</svg>
