<?xml version="1.0" encoding="utf-8"?>
<!-- Generator: Adobe Illustrator 15.1.0, SVG Export Plug-In . SVG Version: 6.00 Build 0)  -->
<!DOCTYPE svg PUBLIC "-//W3C//DTD SVG 1.1//EN" "http://www.w3.org/Graphics/SVG/1.1/DTD/svg11.dtd">
<svg version="1.1" id="Layer_1" xmlns="http://www.w3.org/2000/svg" xmlns:xlink="http://www.w3.org/1999/xlink" x="0px" y="0px"
	 width="30px" height="30px" viewBox="0 0 30 30" enable-background="new 0 0 30 30" xml:space="preserve">
<path fill="#F26739" d="M22.419,4.385L7.191,7.556C6.908,7.613,6.663,7.782,6.506,8.022c-0.159,0.24-0.213,0.533-0.154,0.814
	l0.001,0.007L2.668,9.611l1.005,4.829l3.684-0.767l0.001,0.008c0.107,0.511,0.557,0.861,1.06,0.861c0.072,0,0.146-0.007,0.221-0.023
	l3.866-0.805c-0.091-0.341-0.14-0.7-0.14-1.069c0-2.304,1.876-4.18,4.182-4.18c2.087,0,3.825,1.541,4.131,3.546l3.191-0.664
	L22.419,4.385z M22.419,4.385"/>
<path fill="#F26739" d="M16.548,9.235c-1.881,0-3.411,1.53-3.411,3.411c0,1.88,1.529,3.409,3.411,3.409
	c1.878,0,3.409-1.529,3.409-3.409C19.957,10.766,18.426,9.235,16.548,9.235L16.548,9.235z M16.548,13.891
	c-0.687,0-1.246-0.558-1.246-1.245s0.559-1.244,1.246-1.244c0.685,0,1.242,0.557,1.242,1.244S17.232,13.891,16.548,13.891
	L16.548,13.891z M16.548,13.891"/>
<path fill="#F26739" d="M30.003,10.299l-1.541-7.398c-0.059-0.281-0.226-0.527-0.466-0.686c-0.24-0.157-0.534-0.213-0.814-0.154
	L23.86,2.752c-0.182,0.039-0.346,0.121-0.479,0.234c-0.291,0.249-0.442,0.646-0.358,1.047l1.539,7.398
	c0.059,0.281,0.227,0.527,0.468,0.684c0.086,0.057,0.182,0.101,0.28,0.131c0.101,0.03,0.206,0.046,0.312,0.046
	c0.074,0,0.148-0.007,0.223-0.023l3.32-0.691C29.75,11.457,30.126,10.884,30.003,10.299L30.003,10.299z M30.003,10.299"/>
<path fill="#F26739" d="M2.82,13.859l-0.702-3.375C2.021,10.02,1.642,9.689,1.196,9.632C1.081,9.616,0.959,9.62,0.837,9.645
	c-0.585,0.122-0.961,0.695-0.84,1.281l0.635,3.042l0.069,0.333c0.105,0.51,0.556,0.862,1.058,0.862c0.074,0,0.146-0.007,0.222-0.023
	c0.122-0.024,0.233-0.071,0.335-0.132C2.701,14.777,2.917,14.322,2.82,13.859L2.82,13.859z M2.82,13.859"/>
<path fill="#F26739" d="M22.195,26.539l-3.372-10.387c-0.6,0.387-1.303,0.646-2.058,0.686l1.856,5.738h-4.151l1.858-5.738
	c-0.757-0.039-1.46-0.289-2.059-0.678l-3.373,10.381c-0.184,0.568,0.127,1.178,0.696,1.361c0.569,0.184,1.18-0.111,1.364-0.68
	l0.812-2.482h5.555l0.812,2.482c0.149,0.457,0.575,0.738,1.031,0.738c0.111,0,0.224-0.02,0.333-0.057
	C22.069,27.721,22.38,27.105,22.195,26.539L22.195,26.539z M22.195,26.539"/>
</svg>
