<?xml version="1.0" encoding="utf-8"?>
<!-- Generator: Adobe Illustrator 15.1.0, SVG Export Plug-In . SVG Version: 6.00 Build 0)  -->
<!DOCTYPE svg PUBLIC "-//W3C//DTD SVG 1.1//EN" "http://www.w3.org/Graphics/SVG/1.1/DTD/svg11.dtd">
<svg version="1.1" id="Layer_1" xmlns="http://www.w3.org/2000/svg" xmlns:xlink="http://www.w3.org/1999/xlink" x="0px" y="0px"
	 width="30px" height="30px" viewBox="0 0 30 30" enable-background="new 0 0 30 30" xml:space="preserve">
<g id="XMLID_115_">
	<g>
		<path fill="#F26739" d="M24.543,13.635l-1.191,3.767l-1.191-3.767c-0.881-0.454-1.486-1.392-1.486-2.477
			c0-1.528,1.199-2.764,2.678-2.764c1.48,0,2.68,1.236,2.68,2.764C26.031,12.243,25.426,13.181,24.543,13.635z M24.891,11.159
			c0-0.879-0.689-1.588-1.539-1.588s-1.539,0.708-1.539,1.588c0,0.877,0.689,1.587,1.539,1.587S24.891,12.036,24.891,11.159z"/>
		<polygon fill="#F26739" points="22.553,10.485 24.15,10.485 23.352,11.971 		"/>
		<polygon fill="#F26739" points="6.556,8.628 8.787,8.628 7.671,10.7 		"/>
		<path fill="#F26739" d="M7.671,11.78c1.185,0,2.147-0.991,2.147-2.215c0-1.225-0.962-2.216-2.147-2.216
			c-1.187,0-2.146,0.992-2.146,2.216C5.525,10.79,6.484,11.78,7.671,11.78z M7.671,5.708c2.065,0,3.737,1.727,3.737,3.857
			c0,1.515-0.846,2.824-2.076,3.457l-1.661,5.259l-1.661-5.259c-1.23-0.632-2.076-1.941-2.076-3.457
			C3.935,7.435,5.607,5.708,7.671,5.708z"/>
		<path fill="#F26739" d="M29.566,18.458c-0.256-0.009-0.844-0.122-1.467-0.285l-2.016-0.532c-0.031,0.021-0.076,0.043-0.129,0.063
			l-3.109,1.207l3.033,0.798c0.049,0.012,0.09,0.029,0.123,0.045l2.068-0.803C28.709,18.699,29.311,18.509,29.566,18.458z
			 M19.18,20.339l3.027,0.796c0.053,0.014,0.094,0.027,0.125,0.045l3.295-1.281c-0.057-0.007-0.111-0.019-0.162-0.031l-3.031-0.796
			L19.18,20.339z M12.264,16.128l3.03,0.796l3.109-1.209c0.051-0.02,0.109-0.036,0.164-0.051l-3.192-0.839l-3.272,1.274
			C12.158,16.104,12.211,16.115,12.264,16.128z M7.545,19.94l-3.032-0.798c-0.049-0.015-0.092-0.031-0.124-0.045L1.116,20.37
			l3.19,0.84c0.034-0.022,0.076-0.042,0.129-0.063L7.545,19.94z M4.672,21.307l3.21,0.844c0.033-0.021,0.076-0.04,0.128-0.063
			l3.109-1.21l-3.173-0.834l-3.108,1.21C4.785,21.274,4.729,21.292,4.672,21.307z M18.363,20.392l-3.172-0.835l-3.256,1.268
			l3.174,0.834L18.363,20.392z M15.604,19.396l3.172,0.835l3.256-1.264l-3.172-0.835L15.604,19.396z M18.766,20.498l-3.254,1.266
			l3.029,0.797c0.049,0.016,0.092,0.03,0.123,0.046l3.295-1.281c-0.057-0.005-0.113-0.016-0.162-0.029L18.766,20.498z M8.596,17.554
			l3.03,0.797l3.254-1.266l-3.03-0.795c-0.05-0.016-0.093-0.03-0.125-0.047l-3.293,1.28C8.489,17.531,8.544,17.54,8.596,17.554z
			 M11.823,23.187l3.193,0.84l3.273-1.274c-0.055-0.006-0.111-0.015-0.16-0.031l-3.032-0.794l-3.108,1.207
			C11.937,23.153,11.88,23.171,11.823,23.187z M11.523,20.983l-3.109,1.211c-0.053,0.018-0.108,0.039-0.166,0.05l3.21,0.848
			c0.034-0.022,0.077-0.042,0.128-0.063l3.109-1.21L11.523,20.983z M11.615,18.616L8.36,19.883l3.173,0.834l3.254-1.264
			L11.615,18.616z M28.473,19.056l-13.468,5.236L0.301,20.427l6.823-2.654l0.073,0.233l-2.432,0.946
			c0.055,0.007,0.111,0.016,0.162,0.031l3.029,0.794l3.256-1.266l-2.98-0.784l0.141-0.44l7.013-2.729l7.186,1.89l0.104,0.297
			L22.508,16.7c-0.033,0.021-0.076,0.04-0.127,0.061l-3.107,1.212l3.17,0.831l3.111-1.208c0.051-0.021,0.107-0.037,0.164-0.053
			l-1.809-0.475l0.088-0.244l4.516,1.187c0.76,0.198,1.285,0.396,1.168,0.442C29.793,18.48,29.252,18.751,28.473,19.056z
			 M18.457,18.023l-3.175-0.834l-3.253,1.269l3.173,0.836L18.457,18.023z M18.805,15.823l-3.107,1.207l3.172,0.834l3.107-1.206
			c0.055-0.021,0.109-0.039,0.166-0.055l-3.211-0.845C18.9,15.779,18.857,15.801,18.805,15.823z"/>
	</g>
</g>
</svg>
