<?xml version="1.0" encoding="utf-8"?>
<!-- Generator: Adobe Illustrator 15.1.0, SVG Export Plug-In . SVG Version: 6.00 Build 0)  -->
<!DOCTYPE svg PUBLIC "-//W3C//DTD SVG 1.1//EN" "http://www.w3.org/Graphics/SVG/1.1/DTD/svg11.dtd">
<svg version="1.1" id="Layer_1" xmlns="http://www.w3.org/2000/svg" xmlns:xlink="http://www.w3.org/1999/xlink" x="0px" y="0px"
	 width="30px" height="30px" viewBox="0 0 30 30" enable-background="new 0 0 30 30" xml:space="preserve">
<path fill="#F26739" d="M6.401,25.35c0.116,0,0.231-0.043,0.32-0.131c0.176-0.178,0.176-0.465,0-0.641l-3.646-3.645
	c-0.031-0.027-0.747-0.666-0.747-1.92v-6.79c0-0.5,0.405-0.905,0.905-0.905s0.905,0.405,0.905,0.905v3.583
	c0,0.252,0.202,0.452,0.452,0.452s0.453-0.2,0.453-0.452v-3.583c0-0.999-0.813-1.811-1.811-1.811s-1.811,0.812-1.811,1.811v6.79
	c0,1.688,1.022,2.571,1.038,2.581l3.621,3.623C6.169,25.307,6.285,25.35,6.401,25.35L6.401,25.35z"/>
<path fill="#F26739" d="M11.832,26.709H4.591c-0.251,0-0.453,0.201-0.453,0.451v1.811c0,0.25,0.202,0.453,0.453,0.453
	c0.25,0,0.452-0.203,0.452-0.453v-1.356h6.336v1.356c0,0.25,0.203,0.453,0.453,0.453s0.453-0.203,0.453-0.453V27.16
	C12.285,26.91,12.082,26.709,11.832,26.709L11.832,26.709z"/>
<path fill="#F26739" d="M4.165,18.553c0.019,0.455,0.217,0.896,0.558,1.234l2.263,2.262c0.176,0.178,0.463,0.178,0.64,0
	c0.177-0.176,0.177-0.463,0-0.641l-2.263-2.264c-0.18-0.179-0.284-0.402-0.293-0.629c-0.008-0.226,0.074-0.431,0.239-0.597
	c0.165-0.164,0.372-0.246,0.594-0.235c0.228,0.01,0.451,0.112,0.631,0.291l3.189,3.188c0.031,0.026,0.752,0.687,0.752,1.924v2.263
	c0,0.25,0.202,0.452,0.452,0.452S11.38,25.6,11.38,25.35v-2.263c0-1.666-1.018-2.567-1.038-2.584l-3.168-3.168
	c-0.34-0.342-0.779-0.539-1.234-0.558c-0.478-0.02-0.928,0.158-1.271,0.503C4.326,17.624,4.146,18.076,4.165,18.553L4.165,18.553z"
	/>
<path fill="#F26739" d="M19.684,20.482c-0.045,0.037-1.063,0.938-1.063,2.604v2.263c0,0.25,0.203,0.452,0.453,0.452
	s0.451-0.202,0.451-0.452v-2.263c0-1.237,0.722-1.896,0.772-1.942l3.168-3.17c0.181-0.179,0.404-0.281,0.632-0.291
	c0.229-0.009,0.43,0.071,0.594,0.235c0.156,0.158,0.238,0.353,0.238,0.563c0,0.24-0.104,0.475-0.293,0.664l-2.264,2.262
	c-0.178,0.178-0.178,0.465,0,0.641c0.177,0.178,0.464,0.178,0.641,0l2.264-2.262c0.359-0.359,0.559-0.824,0.56-1.305
	c0-0.449-0.18-0.875-0.505-1.201c-0.344-0.344-0.8-0.521-1.271-0.502c-0.455,0.018-0.895,0.215-1.233,0.557L19.684,20.482z"/>
<path fill="#F26739" d="M26.768,10.414c-0.998,0-1.81,0.812-1.81,1.811v3.583c0,0.25,0.202,0.451,0.452,0.451
	s0.451-0.201,0.451-0.451v-3.583c0-0.5,0.406-0.906,0.906-0.906c0.498,0,0.904,0.406,0.904,0.906v6.789
	c0,1.254-0.716,1.894-0.771,1.943l-3.621,3.621c-0.178,0.176-0.178,0.463,0,0.641c0.088,0.088,0.203,0.131,0.318,0.131
	c0.116,0,0.231-0.043,0.321-0.131l3.593-3.596c0.043-0.037,1.064-0.92,1.064-2.609v-6.789
	C28.577,11.226,27.768,10.414,26.768,10.414L26.768,10.414z"/>
<path fill="#F26739" d="M25.41,26.709h-7.241c-0.25,0-0.453,0.201-0.453,0.451v1.811c0,0.25,0.203,0.453,0.453,0.453
	s0.452-0.203,0.452-0.453v-1.356h6.337v1.356c0,0.25,0.202,0.453,0.452,0.453s0.451-0.203,0.451-0.453V27.16
	C25.861,26.91,25.66,26.709,25.41,26.709L25.41,26.709z"/>
<path fill="#F26739" d="M22.32,11.174c0.011-0.034,0.019-0.065,0.018-0.101c0-0.025-0.006-0.048-0.013-0.073
	c-0.005-0.022-0.001-0.045-0.011-0.065c-0.008-0.014-0.021-0.02-0.029-0.032c-0.006-0.009-0.006-0.021-0.012-0.029l-2.336-2.946
	c-0.063-0.08-0.158-0.126-0.26-0.126H10.34c-0.101,0-0.197,0.046-0.26,0.126l-2.335,2.946c-0.008,0.01-0.007,0.023-0.014,0.034
	c-0.007,0.011-0.019,0.016-0.024,0.027c-0.009,0.018-0.004,0.037-0.01,0.056c-0.009,0.03-0.015,0.058-0.015,0.089
	c0,0.031,0.006,0.059,0.015,0.089c0.005,0.019,0.001,0.038,0.01,0.055c0.005,0.011,0.018,0.017,0.024,0.027s0.006,0.024,0.014,0.034
	l7.005,8.84c0.011,0.016,0.028,0.021,0.041,0.033c0.014,0.013,0.025,0.023,0.041,0.033c0.053,0.035,0.112,0.061,0.178,0.061
	c0.066,0,0.125-0.025,0.178-0.061c0.016-0.01,0.027-0.021,0.041-0.033c0.013-0.012,0.03-0.02,0.041-0.033l7.005-8.84
	c0.009-0.011,0.008-0.025,0.016-0.037c0.006-0.009,0.018-0.014,0.021-0.024C22.32,11.208,22.314,11.19,22.32,11.174z M13.105,11.411
	h3.809l-1.903,7.21L13.105,11.411z M15.695,8.464h3.298l-1.647,2.081L15.695,8.464z M16.659,10.748h-3.298l1.649-2.082
	L16.659,10.748z M12.675,10.545l-1.649-2.081h3.298L12.675,10.545z M19.68,8.666l1.648,2.082h-3.299L19.68,8.666z M10.34,8.666
	l1.649,2.082H8.691L10.34,8.666z M12.419,11.411l1.865,7.06l-5.593-7.06H12.419z M15.736,18.471l1.863-7.06h3.729L15.736,18.471z"/>
<path fill="#F26739" d="M15.021,5.762c-0.184,0-0.332-0.148-0.332-0.331V0.908c0-0.184,0.148-0.332,0.332-0.332
	s0.332,0.148,0.332,0.332v4.523C15.353,5.614,15.204,5.762,15.021,5.762z"/>
<path fill="#F26739" d="M12.712,6.169c-0.133,0-0.26-0.082-0.31-0.214L10.93,2.052c-0.065-0.171,0.022-0.362,0.192-0.427
	c0.172-0.064,0.363,0.021,0.428,0.193l1.473,3.903c0.064,0.171-0.022,0.362-0.193,0.427C12.791,6.163,12.751,6.169,12.712,6.169z"/>
<path fill="#F26739" d="M10.352,6.946c-0.095,0-0.188-0.04-0.254-0.118L8.273,4.653c-0.118-0.14-0.1-0.349,0.041-0.467
	c0.14-0.118,0.349-0.1,0.467,0.041l1.825,2.175c0.118,0.14,0.1,0.349-0.041,0.466C10.502,6.921,10.427,6.946,10.352,6.946z"/>
<path fill="#F26739" d="M8.281,8.62c-0.056,0-0.113-0.014-0.165-0.044L6.4,7.586C6.241,7.494,6.187,7.291,6.278,7.132
	C6.37,6.973,6.572,6.919,6.73,7.01l1.717,0.991C8.606,8.093,8.66,8.296,8.569,8.455C8.507,8.561,8.396,8.62,8.281,8.62z"/>
<path fill="#F26739" d="M17.309,6.169c-0.039,0-0.078-0.007-0.117-0.021c-0.172-0.064-0.258-0.255-0.192-0.427l1.474-3.903
	c0.064-0.171,0.256-0.257,0.428-0.193c0.172,0.065,0.258,0.256,0.191,0.427L17.62,5.955C17.568,6.088,17.443,6.169,17.309,6.169z"/>
<path fill="#F26739" d="M19.67,6.946c-0.074,0-0.15-0.025-0.213-0.078c-0.141-0.118-0.159-0.327-0.04-0.466l1.823-2.175
	c0.117-0.14,0.326-0.158,0.467-0.041c0.141,0.117,0.158,0.327,0.042,0.467l-1.825,2.174C19.857,6.906,19.764,6.946,19.67,6.946z"/>
<path fill="#F26739" d="M21.74,8.62c-0.115,0-0.227-0.059-0.287-0.165c-0.092-0.159-0.037-0.362,0.121-0.453L23.29,7.01
	c0.159-0.091,0.362-0.037,0.454,0.122c0.091,0.159,0.035,0.362-0.122,0.453l-1.716,0.99C21.854,8.606,21.796,8.62,21.74,8.62z"/>
</svg>
