<?xml version="1.0" encoding="utf-8"?>
<!-- Generator: Adobe Illustrator 15.1.0, SVG Export Plug-In . SVG Version: 6.00 Build 0)  -->
<!DOCTYPE svg PUBLIC "-//W3C//DTD SVG 1.1//EN" "http://www.w3.org/Graphics/SVG/1.1/DTD/svg11.dtd">
<svg version="1.1" id="Layer_1" xmlns="http://www.w3.org/2000/svg" xmlns:xlink="http://www.w3.org/1999/xlink" x="0px" y="0px"
	 width="30px" height="30px" viewBox="0 0 30 30" enable-background="new 0 0 30 30" xml:space="preserve">
<g>
	<g>
		<path fill="#F26739" d="M15,0C6.729,0,0,6.729,0,15c0,8.271,6.729,15,15,15s15-6.729,15-15C30,6.729,23.271,0,15,0L15,0z
			 M15,25.622C9.143,25.622,4.378,20.859,4.378,15S9.143,4.377,15,4.377c5.859,0,10.623,4.763,10.623,10.623
			S20.859,25.622,15,25.622L15,25.622z M15,25.622"/>
		<path fill="#F26739" d="M19.262,8.321c-0.381-0.246-0.883-0.154-1.158,0.209l-3.268,4.328c-0.648,0.047-1.262,0.391-1.635,0.979
			c-0.636,0.999-0.342,2.321,0.648,2.958c0.999,0.637,2.319,0.342,2.958-0.648c0.375-0.589,0.428-1.292,0.203-1.898l2.553-4.788
			C19.77,9.061,19.641,8.565,19.262,8.321L19.262,8.321z M15.729,15.453c-0.258,0.405-0.79,0.521-1.194,0.264
			c-0.406-0.257-0.521-0.789-0.264-1.194c0.258-0.405,0.79-0.521,1.194-0.263C15.871,14.517,15.987,15.05,15.729,15.453
			L15.729,15.453z M15.729,15.453"/>
		<path fill="#F26739" d="M20.51,12.484c-0.195-0.436-0.004-0.949,0.43-1.146c0.434-0.194,0.949-0.006,1.145,0.43
			s0.006,0.948-0.43,1.145c-0.078,0.037-0.158,0.062-0.238,0.067C21.043,13.035,20.67,12.839,20.51,12.484L20.51,12.484z
			 M20.51,12.484"/>
		<path fill="#F26739" d="M20.76,18.913c0.363,0.31,0.4,0.861,0.086,1.218c-0.146,0.166-0.336,0.263-0.531,0.288
			c-0.238,0.029-0.49-0.032-0.686-0.202c-0.361-0.313-0.398-0.863-0.084-1.219C19.861,18.638,20.406,18.601,20.76,18.913
			L20.76,18.913z M20.76,18.913"/>
		<path fill="#F26739" d="M22.695,16.133c-0.061,0.392-0.367,0.679-0.732,0.729c-0.08,0.012-0.16,0.012-0.246,0
			c-0.471-0.067-0.797-0.508-0.73-0.979c0.068-0.471,0.51-0.797,0.98-0.73C22.439,15.222,22.764,15.661,22.695,16.133L22.695,16.133
			z M22.695,16.133"/>
		<path fill="#F26739" d="M15,8.994c0.177,0,0.36,0.014,0.539,0.025l1.17-1.548c0.043-0.063,0.092-0.118,0.146-0.172
			c-0.607-0.147-1.226-0.222-1.849-0.222c-4.366,0-7.922,3.552-7.922,7.923c0,1.867,0.661,3.687,1.868,5.106l0.083,0.099
			c0.191,0.214,0.455,0.33,0.724,0.33c0.219,0,0.447-0.081,0.63-0.232c0.399-0.35,0.441-0.949,0.091-1.348l-0.066-0.079
			C9.502,17.791,9,16.421,9,15C8.994,11.687,11.688,8.994,15,8.994L15,8.994z M15,8.994"/>
	</g>
</g>
</svg>
