<?xml version="1.0" encoding="utf-8"?>
<!-- Generator: Adobe Illustrator 15.1.0, SVG Export Plug-In . SVG Version: 6.00 Build 0)  -->
<!DOCTYPE svg PUBLIC "-//W3C//DTD SVG 1.1//EN" "http://www.w3.org/Graphics/SVG/1.1/DTD/svg11.dtd">
<svg version="1.1" id="Layer_1" xmlns="http://www.w3.org/2000/svg" xmlns:xlink="http://www.w3.org/1999/xlink" x="0px" y="0px"
	 width="30px" height="30px" viewBox="0 0 30 30" enable-background="new 0 0 30 30" xml:space="preserve">
<g>
	<g>
		<path fill="#F26739" d="M29.76,18.735c-0.407-0.724-1.177-1.173-2.009-1.173c-0.393,0-0.783,0.103-1.128,0.297l-6.714,3.78
			c-0.088,0.05-0.151,0.133-0.175,0.23c-0.117,0.479-0.393,1.146-1.04,1.61c-0.718,0.515-1.687,0.622-2.868,0.318
			c-0.008-0.002-0.014-0.004-0.021-0.006l-3.873-1.202c-0.234-0.073-0.366-0.322-0.293-0.557c0.058-0.188,0.229-0.313,0.425-0.313
			c0.044,0,0.089,0.007,0.132,0.021l3.852,1.196c0.007,0.002,0.014,0.004,0.02,0.005c0.908,0.229,1.618,0.166,2.106-0.185
			c0.618-0.443,0.727-1.223,0.739-1.336c0.001-0.005,0.001-0.008,0.001-0.012c0.001-0.002,0.001-0.003,0.001-0.003
			c0-0.001,0-0.002,0-0.004c0,0,0-0.001,0-0.002c0.073-0.961-0.546-1.848-1.475-2.109l-0.018-0.006
			c-0.027-0.009-2.878-0.939-4.694-1.458c-0.202-0.058-0.758-0.191-1.562-0.191c-1.125,0-2.802,0.267-4.412,1.538l-6.678,5.402
			C-0.074,24.7-0.174,29.844-0.056,30h3.979c0.059,0.077-0.145-0.017-0.048-0.004C3.891,29.998,3.907,30,3.923,30
			c0.08,0,0.158-0.026,0.222-0.076l4.657-3.586c0.104-0.08,0.245-0.11,0.374-0.08l7.522,1.777c0.558,0.132,1.161,0.047,1.659-0.234
			l10.526-5.928C29.99,21.249,30.383,19.842,29.76,18.735L29.76,18.735z M29.76,18.735"/>
	</g>
	<path fill="#F26739" d="M26.976,0H10.432C9.895,0,9.458,0.436,9.458,0.973v4.428c0,0.538,0.436,0.973,0.973,0.973h0.364v9.403
		c0,0.537,0.435,0.973,0.973,0.973h13.869c0.537,0,0.974-0.436,0.974-0.973V6.374h0.364c0.537,0,0.973-0.435,0.973-0.973V0.973
		C27.948,0.436,27.513,0,26.976,0L26.976,0z M20.75,8.687h-4.094c-0.43,0-0.778-0.349-0.778-0.779c0-0.429,0.349-0.778,0.778-0.778
		h4.094c0.429,0,0.778,0.349,0.778,0.778C21.528,8.337,21.179,8.687,20.75,8.687L20.75,8.687z M26.002,4.428H11.405V1.946h14.597
		V4.428z M26.002,4.428"/>
</g>
</svg>
