<?xml version="1.0" encoding="utf-8"?>
<!-- Generator: Adobe Illustrator 15.1.0, SVG Export Plug-In . SVG Version: 6.00 Build 0)  -->
<!DOCTYPE svg PUBLIC "-//W3C//DTD SVG 1.1//EN" "http://www.w3.org/Graphics/SVG/1.1/DTD/svg11.dtd">
<svg version="1.1" id="Layer_1" xmlns="http://www.w3.org/2000/svg" xmlns:xlink="http://www.w3.org/1999/xlink" x="0px" y="0px"
	 width="30px" height="30px" viewBox="0 0 30 30" enable-background="new 0 0 30 30" xml:space="preserve">
<g>
	<path fill="#F26A38" d="M19.664,12.263l1.949-1.948l2.131-2.132l1.771-1.771l1.246,0.226l3.152-3.152l-2.883-0.519L26.51,0.083
		l-3.145,3.152l0.227,1.246l-1.773,1.771C16.592,1.995,8.859,2.3,3.984,7.168c-5.196,5.198-5.196,13.651,0,18.85
		c5.198,5.197,13.651,5.197,18.85,0c4.35-4.349,5.057-10.978,2.125-16.064l-2.211,2.211c1.814,3.834,1.143,8.569-2.027,11.739
		c-4.031,4.031-10.585,4.031-14.617,0s-4.031-10.585,0-14.616c3.702-3.701,9.534-4,13.585-0.897l-1.949,1.948
		c-2.975-2.058-7.081-1.766-9.718,0.873c-2.969,2.969-2.969,7.793,0,10.763c2.969,2.968,7.794,2.968,10.761,0
		c2.084-2.084,2.701-5.082,1.857-7.715l-2.639,2.639c-0.072,1.082-0.514,2.138-1.338,2.962c-1.801,1.803-4.733,1.803-6.535,0
		c-1.802-1.801-1.802-4.732,0-6.535c1.466-1.466,3.677-1.741,5.424-0.818l-2.095,2.094c-0.532-0.018-1.069,0.178-1.472,0.581
		c-0.776,0.775-0.776,2.039,0,2.821c0.775,0.781,2.039,0.777,2.821,0c0.402-0.403,0.599-0.94,0.58-1.472l2.094-2.095L19.664,12.263z
		"/>
</g>
</svg>
