<?xml version="1.0" encoding="utf-8"?>
<!-- Generator: Adobe Illustrator 15.1.0, SVG Export Plug-In . SVG Version: 6.00 Build 0)  -->
<!DOCTYPE svg PUBLIC "-//W3C//DTD SVG 1.1//EN" "http://www.w3.org/Graphics/SVG/1.1/DTD/svg11.dtd">
<svg version="1.1" id="Layer_1" xmlns="http://www.w3.org/2000/svg" xmlns:xlink="http://www.w3.org/1999/xlink" x="0px" y="0px"
	 width="30px" height="30px" viewBox="0 0 30 30" enable-background="new 0 0 30 30" xml:space="preserve">
<g>
	<g>
		<path fill="#F26739" d="M10.131,16.854l3.479,3.479l-6.879,6.879l-3.478-3.479L10.131,16.854z M17.783,9.202l-1.903,1.902
			l3.479,3.479l1.904-1.903L17.783,9.202z M22.918,0.557h-3.712l-2.27,2.289v3.712l6.97,7.01h3.712l2.328-2.309V7.544L22.918,0.557z
			 M20.763,18.083l-9.408-9.411c0.518-1.665,0.279-3.548-0.81-5.095C9.28,1.788,7.47,0.733,5.112,1.187L7.87,5.092L6.604,8.036
			L3.405,8.245L0.609,4.282c-0.782,1.735-0.834,4.149,0.461,5.984c1.585,2.247,4.49,3.007,6.938,2.016l9.107,9.107
			c-0.735,1.759-0.596,3.844,0.563,5.533c1.239,1.807,3.318,2.692,5.355,2.494l-2.704-3.942l1.308-2.929l3.2-0.162l2.744,3.999
			c0.993-1.852,0.945-4.179-0.325-6.03C25.786,18.205,23.129,17.358,20.763,18.083L20.763,18.083z M20.763,18.083"/>
	</g>
</g>
</svg>
