<?xml version="1.0" encoding="utf-8"?>
<!-- Generator: Adobe Illustrator 15.1.0, SVG Export Plug-In . SVG Version: 6.00 Build 0)  -->
<!DOCTYPE svg PUBLIC "-//W3C//DTD SVG 1.1//EN" "http://www.w3.org/Graphics/SVG/1.1/DTD/svg11.dtd">
<svg version="1.1" id="Layer_1" xmlns="http://www.w3.org/2000/svg" xmlns:xlink="http://www.w3.org/1999/xlink" x="0px" y="0px"
	 width="30px" height="30px" viewBox="0 0 30 30" enable-background="new 0 0 30 30" xml:space="preserve">
<g>
	<g>
		<path fill="#F26739" d="M16.04,13.943h13.932C29.456,6.485,23.503,0.524,16.04,0.012V13.943z M16.04,13.943"/>
		<path fill="#F26739" d="M26.067,25.146c2.242-2.434,3.7-5.619,3.936-9.135H16.934L26.067,25.146z M26.067,25.146"/>
		<path fill="#F26739" d="M13.96,14.546V0.012C6.164,0.55-0.002,7.04-0.002,14.985c0,3.768,1.391,7.206,3.688,9.846L13.96,14.546z
			 M13.96,14.546"/>
		<path fill="#F26739" d="M14.693,16.741l-9.544,9.553c2.635,2.302,6.086,3.694,9.851,3.694c3.614,0,6.931-1.284,9.527-3.413
			L14.693,16.741z M14.693,16.741"/>
	</g>
</g>
</svg>
