<?xml version="1.0" encoding="utf-8"?>
<!-- Generator: Adobe Illustrator 15.1.0, SVG Export Plug-In . SVG Version: 6.00 Build 0)  -->
<!DOCTYPE svg PUBLIC "-//W3C//DTD SVG 1.1//EN" "http://www.w3.org/Graphics/SVG/1.1/DTD/svg11.dtd">
<svg version="1.1" id="Layer_1" xmlns="http://www.w3.org/2000/svg" xmlns:xlink="http://www.w3.org/1999/xlink" x="0px" y="0px"
	 width="30px" height="30px" viewBox="0 0 30 30" enable-background="new 0 0 30 30" xml:space="preserve">
<path fill="#F26739" d="M19.331,19.725C14.31,22.551,7.873,20.822,4.887,15.8C2.063,10.774,3.79,4.335,8.816,1.356
	c5.023-2.828,11.46-1.1,14.442,3.925C26.242,10.305,24.514,16.9,19.331,19.725L19.331,19.725z M18.549,18.311
	c4.241-2.511,5.65-7.848,3.295-12.087c-2.513-4.243-7.847-5.65-12.088-3.303c-4.24,2.512-5.81,7.853-3.294,12.093
	C8.816,19.256,14.31,20.668,18.549,18.311L18.549,18.311z M21.995,18.988l-4.485,2.595l3.534,6.114l4.487-2.594L21.995,18.988z
	 M21.532,28.674c0.784,1.257,2.353,1.728,3.612,0.94c1.253-0.778,1.723-2.351,0.941-3.606L21.532,28.674z M16.665,15.173"/>
<g>
	<g>
		<path fill="#F26739" d="M15.35,12.407c0.86-0.359,1.538-0.854,2.035-1.478c0.496-0.625,0.747-1.303,0.747-2.038
			c0-0.735-0.251-1.414-0.747-2.039c-0.497-0.626-1.175-1.12-2.035-1.481c-0.858-0.361-1.793-0.541-2.802-0.541
			c-1.01,0-1.945,0.18-2.808,0.541C8.883,5.733,8.203,6.23,7.708,6.853C7.211,7.478,6.962,8.156,6.962,8.892
			c0,0.629,0.187,1.221,0.563,1.778c0.377,0.553,0.891,1.021,1.548,1.403c-0.056,0.126-0.108,0.242-0.165,0.348
			c-0.054,0.106-0.12,0.207-0.198,0.304c-0.074,0.099-0.135,0.176-0.176,0.234c-0.045,0.054-0.113,0.13-0.208,0.233
			c-0.095,0.1-0.155,0.164-0.185,0.197c0-0.008-0.008,0.006-0.03,0.036c-0.022,0.027-0.034,0.04-0.036,0.039
			c-0.002-0.004-0.013,0.01-0.03,0.041c-0.021,0.027-0.029,0.042-0.029,0.042l-0.019,0.04c-0.009,0.016-0.017,0.031-0.017,0.049
			c-0.004,0.015-0.004,0.033-0.004,0.05c0,0.019,0.001,0.035,0.004,0.054c0.014,0.065,0.044,0.121,0.094,0.164
			c0.05,0.042,0.106,0.063,0.163,0.063h0.023c0.265-0.038,0.492-0.079,0.682-0.127c0.815-0.213,1.551-0.548,2.207-1.015
			c0.475,0.084,0.94,0.125,1.396,0.125C13.557,12.95,14.492,12.771,15.35,12.407L15.35,12.407z M10.915,11.747l-0.353,0.246
			c-0.147,0.101-0.311,0.205-0.491,0.31l0.276-0.668l-0.769-0.441c-0.506-0.297-0.901-0.646-1.182-1.047
			c-0.28-0.403-0.419-0.82-0.419-1.254c0-0.541,0.208-1.044,0.622-1.516c0.414-0.47,0.974-0.841,1.678-1.118
			c0.702-0.276,1.458-0.412,2.27-0.412c0.809,0,1.563,0.135,2.269,0.412c0.701,0.276,1.262,0.648,1.677,1.118
			c0.412,0.472,0.624,0.975,0.624,1.516c0,0.539-0.212,1.044-0.624,1.515c-0.415,0.471-0.976,0.843-1.677,1.119
			c-0.705,0.272-1.46,0.412-2.269,0.412c-0.399,0-0.801-0.038-1.215-0.111L10.915,11.747z M10.915,11.747"/>
		<path fill="#F26739" d="M20.613,12.703c0.375-0.556,0.563-1.147,0.563-1.784c0-0.647-0.199-1.256-0.596-1.821
			c-0.395-0.569-0.936-1.037-1.617-1.414c0.121,0.399,0.183,0.801,0.183,1.208c0,0.707-0.175,1.38-0.533,2.012
			c-0.354,0.636-0.859,1.197-1.523,1.683c-0.612,0.443-1.309,0.786-2.092,1.024c-0.782,0.238-1.6,0.356-2.452,0.356
			c-0.159,0-0.391-0.012-0.699-0.032c1.064,0.7,2.313,1.048,3.747,1.048c0.455,0,0.917-0.043,1.395-0.129
			c0.655,0.468,1.389,0.805,2.203,1.016c0.193,0.048,0.417,0.09,0.685,0.128c0.062,0.004,0.12-0.014,0.174-0.054
			c0.051-0.045,0.086-0.104,0.104-0.179c-0.006-0.031,0-0.046,0.007-0.05c0.008-0.001,0.006-0.021-0.005-0.05
			c-0.012-0.033-0.017-0.049-0.017-0.049l-0.019-0.041c-0.005-0.009-0.015-0.024-0.028-0.04c-0.013-0.021-0.024-0.033-0.033-0.042
			c-0.008-0.007-0.018-0.021-0.034-0.039c-0.016-0.019-0.025-0.029-0.032-0.037c-0.025-0.03-0.084-0.096-0.182-0.197
			c-0.096-0.102-0.163-0.179-0.204-0.233c-0.046-0.058-0.105-0.134-0.182-0.232c-0.074-0.097-0.141-0.199-0.196-0.306
			c-0.059-0.106-0.11-0.222-0.163-0.347C19.724,13.721,20.237,13.254,20.613,12.703L20.613,12.703z M20.613,12.703"/>
	</g>
</g>
</svg>
