<?xml version="1.0" encoding="utf-8"?>
<!-- Generator: Adobe Illustrator 15.1.0, SVG Export Plug-In . SVG Version: 6.00 Build 0)  -->
<!DOCTYPE svg PUBLIC "-//W3C//DTD SVG 1.1//EN" "http://www.w3.org/Graphics/SVG/1.1/DTD/svg11.dtd">
<svg version="1.1" id="Layer_1" xmlns="http://www.w3.org/2000/svg" xmlns:xlink="http://www.w3.org/1999/xlink" x="0px" y="0px"
	 width="30px" height="30px" viewBox="0 0 30 30" enable-background="new 0 0 30 30" xml:space="preserve">
<g>
	<g>
		<g>
			<path fill="#F26739" d="M18.896,11.328H3.334v3.111h6.223v14.006h3.116V14.438h6.224V11.328z M18.896,11.328"/>
			<path fill="#F26739" d="M26.667,9.773V8.217H22v1.556h1.557v18.671H22V30h4.667v-1.556H25.11V9.773H26.667z M26.667,9.773"/>
		</g>
	</g>
	<g id="XMLID_116_">
		<g>
			<g>
				<path fill="#F26739" d="M16.125,0h1.953v1.092c0.423,0.103,0.824,0.269,1.187,0.492l0.771-0.772l1.379,1.379l-0.771,0.771
					c0.221,0.363,0.387,0.763,0.49,1.187h1.093v1.953h-1.093c-0.104,0.423-0.27,0.821-0.49,1.185l0.771,0.773l-1.379,1.379
					l-0.771-0.773c-0.156,0.093-0.316,0.176-0.483,0.25c0.034-0.227,0.053-0.46,0.053-0.7c0-0.049-0.003-0.098-0.006-0.146
					c1.009-0.596,1.688-1.69,1.688-2.944c0-1.884-1.528-3.414-3.413-3.414c-1.279,0-2.39,0.703-2.977,1.741
					c-0.019,0-0.038-0.002-0.06-0.002c-0.269,0-0.531,0.024-0.79,0.066c0.082-0.191,0.176-0.376,0.285-0.553l-0.775-0.771
					l1.382-1.379l0.771,0.772c0.365-0.224,0.762-0.389,1.186-0.492V0z"/>
				<path fill="#F26739" d="M12.17,4.18c0-0.386-0.313-0.698-0.701-0.698c-0.386,0-0.699,0.313-0.699,0.698
					c0,0.387,0.313,0.7,0.699,0.7C11.857,4.879,12.17,4.567,12.17,4.18z M10.741,2.986c0.122-0.075,0.257-0.132,0.398-0.166V2.453
					h0.66V2.82c0.142,0.034,0.276,0.091,0.399,0.166l0.261-0.26l0.466,0.465l-0.261,0.26c0.074,0.122,0.131,0.257,0.166,0.398h0.368
					v0.658H12.83c-0.035,0.146-0.092,0.278-0.166,0.4l0.261,0.261l-0.466,0.466l-0.261-0.262c-0.123,0.074-0.257,0.131-0.399,0.167
					v0.368h-0.66V5.541c-0.142-0.036-0.277-0.093-0.398-0.167l-0.26,0.262L10.016,5.17l0.26-0.262
					c-0.075-0.123-0.13-0.255-0.166-0.4H9.742V3.85h0.368c0.035-0.141,0.091-0.277,0.166-0.398l-0.26-0.26l0.465-0.465L10.741,2.986
					z"/>
				<path fill="#F26739" d="M15.22,8.215c0-0.636-0.516-1.151-1.154-1.151c-0.635,0-1.153,0.515-1.153,1.151
					c0,0.637,0.518,1.153,1.153,1.153C14.704,9.369,15.22,8.853,15.22,8.215z M11.825,8.759h-0.606V7.674h0.606
					c0.056-0.236,0.149-0.457,0.273-0.66l-0.43-0.429l0.769-0.768l0.428,0.429c0.202-0.122,0.424-0.216,0.66-0.271V5.366h1.084
					v0.609c0.236,0.056,0.459,0.15,0.66,0.271l0.429-0.429l0.767,0.768l-0.431,0.429c0.125,0.203,0.219,0.423,0.275,0.66h0.606
					v1.085h-0.606c-0.057,0.237-0.15,0.455-0.275,0.66l0.431,0.429l-0.767,0.767l-0.429-0.428c-0.2,0.122-0.424,0.214-0.66,0.273
					v0.607h-1.084v-0.607c-0.236-0.059-0.458-0.151-0.66-0.273l-0.428,0.428l-0.769-0.767l0.43-0.429
					C11.974,9.217,11.88,8.997,11.825,8.759z"/>
				<path fill="#F26739" d="M10.313,7.19c0-0.316-0.256-0.57-0.57-0.57c-0.317,0-0.57,0.254-0.57,0.57
					c0,0.313,0.253,0.569,0.57,0.569C10.056,7.76,10.313,7.503,10.313,7.19z M10.011,8.596H9.473V8.297
					C9.357,8.269,9.248,8.222,9.148,8.163L8.937,8.374L8.558,7.997L8.77,7.781C8.708,7.685,8.663,7.575,8.635,7.457h-0.3V6.921h0.3
					C8.663,6.806,8.708,6.696,8.77,6.595L8.558,6.383l0.379-0.378l0.211,0.212c0.1-0.061,0.209-0.105,0.325-0.136v-0.3h0.538v0.3
					c0.116,0.031,0.226,0.075,0.325,0.136l0.213-0.212l0.379,0.378l-0.214,0.211c0.06,0.102,0.106,0.211,0.135,0.326h0.3v0.536h-0.3
					c-0.029,0.118-0.075,0.228-0.135,0.324l0.214,0.215l-0.379,0.377l-0.213-0.211c-0.099,0.059-0.208,0.105-0.325,0.134V8.596z"/>
			</g>
		</g>
	</g>
</g>
</svg>
