<?xml version="1.0" encoding="utf-8"?>
<!-- Generator: Adobe Illustrator 15.1.0, SVG Export Plug-In . SVG Version: 6.00 Build 0)  -->
<!DOCTYPE svg PUBLIC "-//W3C//DTD SVG 1.1//EN" "http://www.w3.org/Graphics/SVG/1.1/DTD/svg11.dtd">
<svg version="1.1" id="Layer_1" xmlns="http://www.w3.org/2000/svg" xmlns:xlink="http://www.w3.org/1999/xlink" x="0px" y="0px"
	 width="30px" height="30px" viewBox="0 0 30 30" enable-background="new 0 0 30 30" xml:space="preserve">
<path fill="#F26739" d="M26.048,4.649h-7.259v-0.79c0-0.387-0.313-0.704-0.704-0.704h-2.128V0.667c0-0.39-0.313-0.704-0.704-0.704
	c-0.388,0-0.702,0.314-0.702,0.704v2.489h-2.08c-0.389,0-0.705,0.317-0.705,0.704v0.79H4.459c-0.388,0-0.703,0.317-0.703,0.704
	v14.706c0,0.387,0.314,0.703,0.703,0.703H7.08v0.429c0,0.388,0.314,0.705,0.703,0.705h1.882l-0.957,4.736c0,0,0,0.005-0.002,0.005
	l-0.515,2.559c-0.076,0.379,0.169,0.753,0.55,0.829c0.047,0.007,0.095,0.013,0.139,0.013c0.33,0,0.622-0.232,0.69-0.566l0.401-1.99
	h4.579v1.852c0,0.391,0.314,0.705,0.702,0.705c0.391,0,0.704-0.314,0.704-0.705V27.48h4.58l0.4,1.99
	c0.066,0.334,0.361,0.566,0.688,0.566c0.047,0,0.093-0.006,0.142-0.013c0.377-0.076,0.626-0.45,0.548-0.829l-0.517-2.559v-0.005
	l-0.956-4.736h1.879c0.391,0,0.705-0.317,0.705-0.705v-0.429h2.621c0.39,0,0.703-0.316,0.703-0.703V5.353
	C26.751,4.967,26.438,4.649,26.048,4.649L26.048,4.649z M13.174,4.563h4.208v1.281h-4.208V4.563z M8.245,13.922
	c0.225,0,0.44,0.053,0.629,0.147l1.929-1.361c-0.016-0.103-0.029-0.206-0.029-0.315c0-0.935,0.761-1.695,1.697-1.695
	c0.935,0,1.696,0.76,1.696,1.695c0,0.066-0.004,0.131-0.011,0.196l1.886,1.137c0.267-0.179,0.583-0.283,0.928-0.283
	c0.13,0,0.259,0.017,0.382,0.046l2.496-3.157c-0.121-0.237-0.192-0.504-0.192-0.789c0-0.944,0.77-1.714,1.714-1.714
	c0.945,0,1.714,0.77,1.714,1.714c0,0.945-0.769,1.714-1.714,1.714c-0.143,0-0.284-0.02-0.419-0.053l-2.498,3.157
	c0.112,0.224,0.178,0.476,0.178,0.743c0,0.916-0.746,1.659-1.66,1.659c-0.918,0-1.662-0.743-1.662-1.659
	c0-0.058,0.004-0.116,0.01-0.174l-1.889-1.138c-0.274,0.188-0.602,0.3-0.957,0.3c-0.313,0-0.604-0.087-0.855-0.234l-1.929,1.359
	c0.005,0.052,0.008,0.103,0.008,0.157c0,0.799-0.65,1.451-1.45,1.451c-0.799,0-1.448-0.651-1.448-1.451
	C6.797,14.572,7.446,13.922,8.245,13.922L8.245,13.922z M10.255,26.074l0.845-4.179h3.451v4.179H10.255z M20.252,26.074h-4.295
	v-4.179h3.45L20.252,26.074z M22.021,20.487H8.486v-0.923h13.534V20.487z M22.021,20.487"/>
</svg>
