<?xml version="1.0" encoding="utf-8"?>
<!-- Generator: Adobe Illustrator 21.1.0, SVG Export Plug-In . SVG Version: 6.00 Build 0)  -->
<svg version="1.1" id="Layer_1" xmlns="http://www.w3.org/2000/svg" xmlns:xlink="http://www.w3.org/1999/xlink" x="0px" y="0px"
	 viewBox="0 0 46.1 41.9" style="enable-background:new 0 0 46.1 41.9;" xml:space="preserve">
<style type="text/css">
	.st0{fill:#1D2132;}
	.st1{fill:url(#SVGID_1_);}
	.st2{opacity:0.25;}
	.st3{opacity:0.2;fill:#688EC4;stroke:#FFFFFF;stroke-miterlimit:10;}
	.st4{opacity:0.1;fill:#688EC4;stroke:#FFFFFF;stroke-miterlimit:10;}
	.st5{opacity:5.000000e-02;fill:#688EC4;stroke:#FFFFFF;stroke-miterlimit:10;}
	.st6{opacity:5.000000e-02;fill:none;stroke:#FFFFFF;stroke-width:2;stroke-miterlimit:10;}
	.st7{opacity:5.000000e-02;fill:#688EC4;stroke:#FFFFFF;stroke-width:2;stroke-miterlimit:10;}
	.st8{opacity:0.15;fill:#688EC4;stroke:#FFFFFF;stroke-miterlimit:10;}
	.st9{opacity:0.25;fill:#688EC4;stroke:#FFFFFF;stroke-miterlimit:10;}
	.st10{opacity:0.1;fill:none;stroke:#FFFFFF;stroke-width:2;stroke-miterlimit:10;}
	.st11{opacity:0.1;fill:#688EC4;stroke:#FFFFFF;stroke-width:2;stroke-miterlimit:10;}
	.st12{fill:#FFFFFF;}
	.st13{fill:none;stroke:#606060;stroke-miterlimit:10;}
	.st14{opacity:0.5;fill:#CECECE;}
	.st15{fill:#F68E28;}
	.st16{fill:none;}
	.st17{enable-background:new    ;}
	.st18{fill:#606060;}
	.st19{fill:url(#SVGID_6_);}
	.st20{opacity:5.000000e-02;}
	.st21{opacity:3.000000e-02;fill:#688EC4;stroke:#FFFFFF;stroke-width:2;stroke-miterlimit:10;}
	.st22{opacity:3.000000e-02;fill:none;stroke:#FFFFFF;stroke-width:2;stroke-miterlimit:10;}
	.st23{fill:#4D4D4D;}
	.st24{fill:#F2653E;}
	.st25{fill:none;stroke:#FFFFFF;stroke-miterlimit:10;}
	.st26{fill:none;stroke:#FFFFFF;stroke-miterlimit:10;stroke-dasharray:3,3;}
	.st27{fill:#EF3A39;}
	.st28{fill:#4A78BB;}
	.st29{fill:url(#SVGID_7_);}
	.st30{fill:url(#SVGID_8_);}
	.st31{fill:url(#SVGID_9_);}
	.st32{fill:url(#SVGID_10_);}
</style>
<g>
	<g>
		<rect class="st24" width="27.2" height="27.2"/>
		<g>
			<rect x="2" y="4.9" class="st12" width="23.3" height="20.9"/>
			<g>
				<rect x="3" y="5.9" class="st24" width="4.7" height="1"/>
				<rect x="3" y="7.9" class="st24" width="4.7" height="1"/>
				<rect x="3" y="9.9" class="st24" width="4.7" height="1"/>
				<rect x="3" y="12" class="st24" width="4.7" height="1"/>
				<rect x="3" y="14" class="st24" width="4.7" height="1"/>
				<rect x="3" y="15.9" class="st24" width="4.7" height="1"/>
				<rect x="3" y="17.8" class="st24" width="4.7" height="1"/>
				<rect x="3" y="19.8" class="st24" width="4.7" height="1"/>
				<rect x="3" y="21.8" class="st24" width="4.7" height="1"/>
				<rect x="3" y="23.8" class="st24" width="4.7" height="1"/>
				<rect x="8.8" y="5.9" class="st24" width="4.7" height="1"/>
				<rect x="8.8" y="7.9" class="st24" width="4.7" height="1"/>
				<rect x="8.8" y="9.9" class="st24" width="4.7" height="1"/>
				<rect x="8.8" y="12" class="st24" width="4.7" height="1"/>
				<rect x="8.8" y="14" class="st24" width="4.7" height="1"/>
				<rect x="8.8" y="15.9" class="st24" width="4.7" height="1"/>
				<rect x="8.8" y="17.8" class="st24" width="4.7" height="1"/>
				<rect x="8.8" y="19.8" class="st24" width="4.7" height="1"/>
				<rect x="8.8" y="21.8" class="st24" width="4.7" height="1"/>
				<rect x="8.8" y="23.8" class="st24" width="4.7" height="1"/>
				<rect x="14.7" y="5.9" class="st24" width="4.7" height="1"/>
				<rect x="20.4" y="5.9" class="st24" width="4.7" height="1.6"/>
				<rect x="14.7" y="7.9" class="st24" width="4.7" height="1"/>
				<rect x="14.7" y="9.9" class="st24" width="4.7" height="1"/>
				<rect x="14.7" y="12" class="st24" width="4.7" height="1"/>
				<rect x="14.7" y="14" class="st24" width="4.7" height="1"/>
				<rect x="14.7" y="15.9" class="st24" width="4.7" height="1"/>
				<rect x="14.7" y="17.8" class="st24" width="4.7" height="1"/>
				<rect x="14.7" y="19.8" class="st24" width="4.7" height="1"/>
				<rect x="14.7" y="21.8" class="st24" width="4.7" height="1"/>
				<rect x="14.7" y="23.8" class="st24" width="4.7" height="1"/>
			</g>
		</g>
	</g>
	<g>
		<rect x="18.9" y="7.5" class="st24" width="27.2" height="27.2"/>
		<rect x="20.8" y="12.4" class="st12" width="23.3" height="20.9"/>
		<g>
			<path class="st24" d="M38.5,28.8H27.3V17.6h11.2V28.8z M29,27.1h7.8v-7.8H29V27.1z"/>
		</g>
	</g>
	<g>
		<rect x="7.2" y="14.7" class="st24" width="27.2" height="27.2"/>
		<rect x="9.2" y="19.6" class="st12" width="23.3" height="20.9"/>
		<g>
			<path class="st24" d="M20.8,36.1c-0.4,0-0.7,0-1.1,0c-0.6,0-1-0.3-1.1-1c-0.1-1.2-0.4-2.2-1-3.3c-0.2-0.3-0.3-0.7-0.5-1
				c-0.9-2.2,0.3-4.7,2.6-5.2c2.2-0.6,4.4,0.9,4.8,3.1c0.1,0.9,0,1.7-0.4,2.5c-0.3,0.5-0.5,1-0.7,1.6C23.2,33.5,23,34.2,23,35
				c0,0.1,0,0.2,0,0.3c-0.1,0.5-0.5,0.8-1,0.8c0,0,0,0,0,0C21.6,36.1,21.2,36.1,20.8,36.1z M20.8,35.1c0.3,0,0.7,0,1,0
				c0.1,0,0.1,0,0.1-0.1c0-0.3,0-0.5,0.1-0.8c0.1-0.7,0.3-1.4,0.6-2.1c0.2-0.5,0.5-0.9,0.7-1.4c0.3-0.6,0.4-1.1,0.3-1.8
				c-0.3-1.9-2.3-3-4-2.2c-1.1,0.5-1.8,1.5-1.7,2.7c0,0.5,0.1,0.9,0.3,1.3c0.2,0.4,0.4,0.7,0.5,1.1c0.3,0.7,0.6,1.4,0.7,2.1
				c0.1,0.3,0.1,0.6,0.1,1c0,0.1,0,0.1,0.1,0.1C20.1,35.1,20.5,35.1,20.8,35.1z"/>
			<path class="st24" d="M20.8,36.6c0.5,0,1,0,1.5,0c0.2,0,0.4,0.1,0.5,0.2c0.3,0.3,0.1,0.8-0.3,0.9c0,0-0.1,0-0.1,0
				c-1,0-2.1,0-3.1,0c-0.2,0-0.3-0.1-0.4-0.2c-0.2-0.2-0.2-0.4-0.2-0.6c0.1-0.2,0.3-0.4,0.5-0.4c0.5,0,0.9,0,1.4,0
				C20.7,36.6,20.8,36.6,20.8,36.6z"/>
			<path class="st24" d="M20.8,39.4c-0.3,0-0.7,0-1,0c-0.4,0-0.7-0.4-0.6-0.8c0.1-0.3,0.3-0.4,0.5-0.4c0.7,0,1.4,0,2.1,0
				c0.3,0,0.5,0.2,0.5,0.6c0,0.3-0.2,0.6-0.5,0.6l0,0C21.5,39.4,21.2,39.4,20.8,39.4z"/>
			<path class="st24" d="M20.2,22.7c0-0.3,0-0.7,0-1c0-0.3,0.2-0.6,0.6-0.6c0.3,0,0.6,0.2,0.6,0.6c0,0.7,0,1.4,0,2.1
				c0,0.3-0.2,0.5-0.5,0.5c-0.3,0-0.6-0.2-0.6-0.4c0,0,0-0.1,0-0.1C20.2,23.4,20.2,23,20.2,22.7z"/>
			<path class="st24" d="M26.6,28.3c0.4,0,0.7,0,1.1,0c0.3,0,0.6,0.2,0.6,0.6c0,0.3-0.2,0.6-0.6,0.6c-0.7,0-1.4,0-2.1,0
				c-0.3,0-0.5-0.2-0.5-0.5c0-0.3,0.1-0.6,0.4-0.7c0.1,0,0.1,0,0.2,0C25.9,28.3,26.3,28.3,26.6,28.3z"/>
			<path class="st24" d="M14.2,29.5c-0.3,0-0.7,0-1,0c-0.3,0-0.6-0.2-0.6-0.6c0-0.3,0.2-0.6,0.6-0.6c0.7,0,1.4,0,2.1,0
				c0.3,0,0.6,0.2,0.6,0.6c0,0.3-0.2,0.6-0.6,0.6C14.9,29.5,14.6,29.5,14.2,29.5z"/>
			<path class="st24" d="M17.5,25.3c0,0.4-0.4,0.7-0.7,0.6c-0.1,0-0.2-0.1-0.3-0.1c-0.5-0.5-1-1-1.5-1.5c-0.3-0.3-0.2-0.8,0.2-0.9
				c0.2-0.1,0.4-0.1,0.6,0.1c0.5,0.5,1,1,1.5,1.5C17.4,25,17.5,25.2,17.5,25.3z"/>
			<path class="st24" d="M24.7,25.9c-0.3,0-0.7-0.3-0.6-0.7c0-0.1,0.1-0.2,0.1-0.3c0.5-0.5,1-1,1.5-1.5c0.1-0.1,0.3-0.2,0.5-0.1
				c0.2,0.1,0.4,0.2,0.4,0.4c0.1,0.2,0,0.4-0.1,0.5c-0.5,0.5-1,1-1.5,1.5C25,25.9,24.9,25.9,24.7,25.9z"/>
		</g>
	</g>
</g>
</svg>
